<svg xmlns="http://www.w3.org/2000/svg" width="406.94" height="275.014" viewBox="0 0 406.94 275.014"><g transform="translate(-2.959 -39.993)"><g transform="translate(-11.041 39.993)"><path d="M306.28,163.828,303.1,151l7.842-1.934,3.113,12.482c2.05-.512,4.157-.967,6.256-1.47l-3.133-12.569,7.8-1.934,3.2,12.811q2.553-.58,4.98-1.17l10.761-2.688L346,162.861s-5.666,1.3-5.666,1.412c-3.162.793-3.732,2.9-3.636,4.535l3.645,14.609a5.685,5.685,0,0,0-.812.261l.822-.2,5.1,20.459a2.828,2.828,0,0,0,3.558,1.856h.019c-.077.116,5.675-1.412,5.675-1.412l3.867,8.934-10.152,2.533c-1.934.474-3.741.967-5.559,1.431l3.23,12.966-7.793,1.934-3.2-12.83c-2.069.561-4.148,1.093-6.217,1.615l3.191,12.772-7.8,1.934-3.23-12.946c-13.3,2.514-23.321,1.5-27.526-10.529-3.394-9.669.164-15.276,7.174-18.921-5.1-1.18-8.943-4.525-9.968-11.457l-.087-.039C289.226,172.307,296.438,167.221,306.28,163.828Zm2.185,42.948c2.407,9.669,18.728,4.447,24.016,3.142L328.2,192.737c-5.269,1.325-22.238,3.935-19.714,14.039Zm-2.417-25.138c2.2,8.818,15.779,4.331,20.188,3.239L322.369,169.3c-4.4,1.093-18.593,3.142-16.262,12.337Z" transform="translate(-103.108 -119.44)" fill="#f9a826"/><path d="M326.1,263.617a72.088,72.088,0,1,0-72.088-72.089A72.088,72.088,0,0,0,326.1,263.617Zm0-142.243a70.155,70.155,0,1,1-70.155,70.155A70.155,70.155,0,0,1,326.1,121.373Zm2.419,115.085,9.68-2.4L335,221.286c1.447-.364,2.9-.742,4.345-1.128l3.2,12.811,9.669-2.4L348.981,217.6l1.135-.3c1.135-.3,2.285-.6,3.484-.892l11.262-2.81-4.651-10.743-.8.214c-1.113.3-2.289.6-3.269.852l.136-.2-2.572.771a1.876,1.876,0,0,1-2.377-1.219l-4.87-19.524h0L342.6,168.287c-.076-1.814.876-2.944,2.91-3.453l2.17-.544-.054-.034c1.026-.249,2.315-.551,3.529-.828l.961-.22-2.551-10.23-11.7,2.922q-1.969.483-4.036.954l-3.2-12.828-9.679,2.4,3.13,12.559q-.826.193-1.651.381c-.914.21-1.824.419-2.725.636l-3.113-12.483-9.717,2.4,3.2,12.916c-7.675,2.752-17.092,7.7-15.45,18.708l.078.525.093.041c.959,5.574,3.788,9.286,8.425,11.063-6.771,4.328-8.624,10.554-5.672,18.965,4.663,13.336,16.515,13.334,27.72,11.325Zm7.334-3.81-5.925,1.468-3.217-12.895-.9.169c-15.305,2.892-22.964.024-26.434-9.9-2.887-8.226-.756-13.864,6.708-17.745l2.325-1.209-2.553-.591c-5.333-1.234-8.352-4.72-9.23-10.657l-.078-.526-.079-.035c-.866-7.421,3.809-12.484,15.072-16.367l.836-.288-3.161-12.749,5.965-1.471,3.114,12.485.939-.235c1.194-.3,2.408-.577,3.628-.857.871-.2,1.746-.4,2.618-.61l.949-.228-3.135-12.576,5.926-1.469,3.2,12.793.923-.21c1.707-.389,3.375-.776,4.995-1.174l9.827-2.455,1.606,6.439a46.465,46.465,0,0,0-4.755,1.2c-2.919.744-4.5,2.754-4.334,5.522l.027.177,3.426,13.732-.011,0,.23.872.045-.011.018.056-.054.014,5.105,20.459a3.807,3.807,0,0,0,4.791,2.549l0-.009c.739-.1,2.11-.456,4.846-1.181l3.084,7.123-9.046,2.257c-1.205.3-2.366.6-3.51.9-.688.18-1.371.359-2.055.533l-.931.237,3.228,12.959-5.917,1.468-3.205-12.85-.952.258c-2.053.557-4.138,1.1-6.2,1.609l-.94.234Zm-12.816-19.562c4.679,0,9.809-1.348,13.111-2.216.571-.15,1.082-.284,1.517-.392l.941-.232-4.752-19.061-.94.237c-.531.134-1.182.28-1.921.447-5.38,1.212-14.384,3.24-17.615,8.483a7.711,7.711,0,0,0-1.1,5.08h-.077l.279,1.2a7.607,7.607,0,0,0,3.577,4.9,13.752,13.752,0,0,0,6.983,1.558Zm13.225-4.245-.606.159c-4.514,1.187-13.907,3.654-18.616.864a5.567,5.567,0,0,1-2.537-3.183l-.129-.518a5.964,5.964,0,0,1,.651-4.8c2.8-4.549,11.644-6.54,16.393-7.61l1.025-.233Zm-16.741-21.267a43.007,43.007,0,0,0,10.6-1.8c.488-.13.924-.246,1.294-.338l.939-.233-4.334-17.453-.938.233c-.435.108-.968.226-1.571.359-4.414.974-11.8,2.606-14.6,7.145a7.269,7.269,0,0,0-1.021,4.8h-.075l.242,1.2a7.284,7.284,0,0,0,3.408,4.708,11.914,11.914,0,0,0,6.052,1.371Zm10.5-3.772-.389.1c-3.912,1.04-11.194,2.979-15.177.631a5.149,5.149,0,0,1-2.232-2.628l-.225-.887a5.591,5.591,0,0,1,.567-4.518c2.37-3.843,9.527-5.423,13.372-6.272l.678-.151Z" transform="translate(-106.262 -119.44)" fill="#3f3d56"/><path d="M390.434,248.167a5.7,5.7,0,0,0-9.145-.2l-19.169-6.515,2.657,10.18,17.8,4.626a5.728,5.728,0,0,0,7.861-8.091Z" transform="translate(-207.705 -119.44)" fill="#ffb8b8"/><path d="M529.46,389.64A139.54,139.54,0,0,0,517.911,345.6q-2.607-5.823-5.738-11.389a.85.85,0,0,1,1.468-.858,141.471,141.471,0,0,1,15.742,43.429q1.182,6.384,1.777,12.859c.1,1.089-1.6,1.082-1.7,0Z" transform="translate(-483.292 -115.44)" fill="#f9a826"/><ellipse cx="10.764" cy="10.764" rx="10.764" ry="10.764" transform="translate(14 199.967)" fill="#f9a826"/><path d="M525.038,389.926a90.529,90.529,0,0,0-7.492-28.571q-1.691-3.777-3.722-7.389a.552.552,0,0,1,.952-.557,91.777,91.777,0,0,1,10.213,28.174q.767,4.142,1.153,8.342c.065.706-1.038.7-1.1,0Z" transform="translate(-479.972 -115.44)" fill="#f9a826"/><ellipse cx="6.983" cy="6.983" rx="6.983" ry="6.983" transform="translate(24.198 226.327)" fill="#f9a826"/><path d="M499.2,389.267a90.53,90.53,0,0,0,11.665-27.136q.99-4.018,1.61-8.115a.552.552,0,0,1,1.093.147,91.779,91.779,0,0,1-9.277,28.5q-1.943,3.737-4.222,7.286c-.383.6-1.25-.085-.869-.678Z" transform="translate(-452.737 -115.44)" fill="#f9a826"/><ellipse cx="6.983" cy="6.983" rx="6.983" ry="6.983" transform="translate(53.852 225.837)" fill="#f9a826"/><path d="M448.015,288.569a5.7,5.7,0,0,1,2.5-8.37l-1.468-20.192,9.18,5.14-.013,18.387a5.728,5.728,0,0,1-10.2,5.035Z" transform="translate(-359.69 -119.44)" fill="#ffb8b8"/><path d="M447.877,210.076l-2.51,64.257,10.2-.567,2.266-67.419-2.151-1.012a5.476,5.476,0,0,0-7.8,4.741Z" transform="translate(-357.268 -119.44)" fill="#f9a826"/><path d="M279.6,264.145h6.946l3.3-26.791H279.6Z" transform="translate(-157.458 0)" fill="#ffb8b8"/><path d="M282.907,262.16h-13.4v8.434h21.83a8.434,8.434,0,0,0-8.434-8.434Z" transform="translate(-148.853 0)" fill="#2f2e41"/><path d="M327.085,255.844l6.3,2.918,14.254-22.924-9.3-4.306Z" transform="translate(-262.728 0)" fill="#ffb8b8"/><path d="M8.434,8.434h13.4V0H0A8.434,8.434,0,0,0,8.434,8.434Z" transform="translate(80.107 270.245) rotate(-155.159)" fill="#2f2e41"/><path d="M480.579,296.151,473.416,377.9l-9.631-1.133-7.118-74.671-39.339,71.272-10.2-2.833s32.824-98.183,35.373-106.4c2.795-9.006,24.928-12.464,24.928-12.464l.85-.85C477.791,263.624,481.6,280.235,480.579,296.151Z" transform="translate(-341.94 -119.44)" fill="#2f2e41"/><ellipse cx="13.915" cy="13.915" rx="13.915" ry="13.915" transform="translate(86.563 50.972)" fill="#ffb8b8"/><path d="M414.031,211.177l9.671,50.406s14.7-2.935,19.931-6.47c2.074-1.405,3.954-2.855,5.541-4.17.311-.255.606-.51.895-.753,2.618-2.238,4.226-3.9,4.226-3.9s-.838-4.107-1.864-8.968c-1.144-5.445-2.533-11.841-3.241-14.453-1.558-5.728-6.906-12.4-11.076-16.945a12.315,12.315,0,0,0-12.164-3.6l-7.546,1.949A5.973,5.973,0,0,0,414.031,211.177Z" transform="translate(-322.289 -119.44)" fill="#f9a826"/><path d="M413.923,233.193s5.2,10.81,12.651,17c2.618-2.238,4.226-3.9,4.226-3.9s-.838-4.107-1.864-8.968C422.693,234.02,416.257,231.941,413.923,233.193Z" transform="translate(-298.794 -119.44)" opacity="0.2"/><path d="M380.87,213.406a9.249,9.249,0,0,1,1.6-.637,7.079,7.079,0,0,1,6.541,1.507l30.57,22.392,24.313,8.178L439.5,255.237l-36.245-8.852-24.038-21.363a7.225,7.225,0,0,1,1.65-11.616Z" transform="translate(-274.965 -119.44)" fill="#f9a826"/><path d="M453.623,198.115c-1.98-2.964-3.543-7.075-1.363-9.9,2.152-2.784,6.4-2.374,9.694-3.606,4.591-1.716,7.254-7.11,6.424-11.94s-4.708-8.835-9.328-10.473a20.2,20.2,0,0,0-14.352.781,21.917,21.917,0,0,0-12.349,12.507c-2,5.692-.932,12.525,3.223,16.9,4.455,4.69,11.447,5.94,17.916,5.864" transform="translate(-353.968 -119.44)" fill="#2f2e41"/><path d="M510.881,181.708c-.567,3.168-4.042,4.967-7.235,5.362s-6.5-.112-9.606.719c-5.481,1.464-9.1,6.735-11.086,12.048s-2.872,11.047-5.457,16.1-7.6,9.5-13.251,9.029a14.578,14.578,0,0,0,27.418-.889c2.077-6.412-.307-14.058,3.325-19.735,2.01-3.142,5.48-4.989,8.827-6.636s6.858-3.337,9.1-6.316,2.692-7.684-.073-10.187" transform="translate(-433.078 -119.44)" fill="#2f2e41"/><path d="M115.377,263.521l-6.641-2.038,4.7-26.582,9.8,3.008Z" transform="translate(180.027 0)" fill="#a0616a"/><path d="M0,8.434H21.829V0H8.434A8.434,8.434,0,0,0,0,8.434H0Z" transform="translate(276.54 255.657) rotate(17.061)" fill="#2f2e41"/><path d="M67.925,263.674H60.979l-3.3-26.791H67.926Z" transform="translate(286.398 0)" fill="#a0616a"/><path d="M0,8.434H21.83V0H8.434A8.434,8.434,0,0,0,0,8.434H0Z" transform="translate(333.984 261.689)" fill="#2f2e41"/><path d="M208.122,294.122a5.191,5.191,0,0,0-.18-7.958l-5.385-67.813L191.6,221.087l8.769,66.15a5.219,5.219,0,0,0,7.748,6.885Z" transform="translate(144.433 -119.44)" fill="#a0616a"/><ellipse cx="13.915" cy="13.915" rx="13.915" ry="13.915" transform="translate(312.744 45.346)" fill="#a0616a"/><path d="M238.784,219.7a12.4,12.4,0,0,0-.153-15.135c-2.325-2.834-6.213-5.1-12.705-5.1a26.62,26.62,0,0,0-23.868,13.724s-7.16,13.127-2.983,25.061,4.177,13.127,4.177,13.127l27.448-2.387S226.068,237.153,238.784,219.7Z" transform="translate(106.88 -119.44)" fill="#cfcfcf"/><path d="M215.806,231.576l-5.913-19.345a9.25,9.25,0,0,0-13.086-5.516h0a9.267,9.267,0,0,0-4.229,11.94l7.517,17.12Z" transform="translate(138.322 -119.44)" fill="#ccc"/><path d="M211.371,248.389,188.1,368.921l12.531,3.58,30.431-79.36,13.724,81.15,13.127,1.79s5.758-107.372-19.691-127.1Z" transform="translate(99.356 -119.44)" fill="#2f2e41"/><path d="M233.556,235.879a5.966,5.966,0,0,1,.545.764L262.166,238l5.4-16.5,9.383,4.46-8.831,24.572-34.708-6.788a5.946,5.946,0,1,1,.143-7.871Z" transform="translate(45.895 -119.44)" fill="#a0616a"/><path d="M237.226,214.918a9.249,9.249,0,0,0-9.763-10.312h0a9.266,9.266,0,0,0-8.673,9.232v18.7l16.072,2.473Z" transform="translate(89.849 -119.44)" fill="#ccc"/><path d="M211.824,192.743c2.089-.009,3.7-2.208,3.606-4.294a7.1,7.1,0,0,0-3.183-5.152,34.522,34.522,0,0,0-5.551-2.882,11.836,11.836,0,0,1-4.912-3.767A8.337,8.337,0,0,1,201.2,169a12.276,12.276,0,0,1,5.288-5.792,16.253,16.253,0,0,1,11.567-1.829c3.9.856,9.719,3.227,12.005,6.5l2.384,6.491c2.429,2.921.548,7.259-.945,10.753a13.89,13.89,0,0,1-8.261,7.372,20.279,20.279,0,0,1-11.241.337" transform="translate(111.774 -119.44)" fill="#2f2e41"/><path d="M168.377,171.123a8.494,8.494,0,0,1,4.638-3.3,14.574,14.574,0,0,1,19.168,13.032c.195,3.577-.926,7.076-1.584,10.6s-.789,7.411,1.153,10.422c1.479,2.293,3.945,3.737,6.38,4.97,2.029,1.028,4.224,1.992,6.489,1.787s4.542-2,4.482-4.272a18.16,18.16,0,0,1,1.519,5.144,6.134,6.134,0,0,1-1.573,4.964c-1.877,1.812-4.851,1.68-7.431,1.289-5.584-.847-11.239-2.434-15.651-5.96s-7.339-9.334-6.178-14.861a36.534,36.534,0,0,1,2.548-6.589,12.264,12.264,0,0,0,1.218-6.869,8.348,8.348,0,0,0-4.245-5.655,11.105,11.105,0,0,0-7.095-1.076c-1.586.26-3.566.664-4.506-.639a2.554,2.554,0,0,1,.053-2.724,7.506,7.506,0,0,1,2.035-2.017" transform="translate(167.938 -119.44)" fill="#2f2e41"/><g transform="translate(366.814 196.781)"><path d="M1.7,56.7A139.54,139.54,0,0,1,13.253,12.664q2.607-5.823,5.738-11.389A.85.85,0,0,0,17.523.416,141.471,141.471,0,0,0,1.781,43.846Q.6,50.23,0,56.7c-.1,1.089,1.6,1.082,1.7,0Z" transform="matrix(-1, 0.017, -0.017, -1, 39.675, 75.062)" fill="#f9a826"/><ellipse cx="10.764" cy="10.764" rx="10.764" ry="10.764" transform="matrix(-1, 0.017, -0.017, -1, 54.126, 21.526)" fill="#f9a826"/><path d="M1.105,36.774A90.529,90.529,0,0,1,8.6,8.2Q10.289,4.425,12.32.814a.552.552,0,0,0-.952-.557A91.777,91.777,0,0,0,1.155,28.432Q.389,32.574,0,36.774c-.065.706,1.038.7,1.1,0Z" transform="matrix(-1, 0.017, -0.017, -1, 34.478, 75.122)" fill="#f9a826"/><ellipse cx="6.983" cy="6.983" rx="6.983" ry="6.983" transform="matrix(-1, 0.017, -0.017, -1, 43.862, 40.39)" fill="#f9a826"/><path d="M14.371,35.711A90.529,90.529,0,0,1,2.705,8.575Q1.715,4.557,1.1.46A.552.552,0,0,0,0,.607,91.778,91.778,0,0,0,9.279,29.1q1.943,3.737,4.222,7.286c.383.6,1.25-.085.869-.678Z" transform="matrix(-1, 0.017, -0.017, -1, 21.894, 74.826)" fill="#f9a826"/><ellipse cx="6.983" cy="6.983" rx="6.983" ry="6.983" transform="matrix(-1, 0.017, -0.017, -1, 14.208, 39.9)" fill="#f9a826"/></g></g></g></svg>