<svg xmlns="http://www.w3.org/2000/svg" xmlns:xlink="http://www.w3.org/1999/xlink" width="378" height="357" viewBox="0 0 378 357"><defs><clipPath id="a"><rect width="378" height="357" transform="translate(21 53)" fill="#fff" stroke="#707070" stroke-width="1"/></clipPath></defs><g transform="translate(-21 -53)" clip-path="url(#a)"><g transform="translate(21 122.211)"><rect width="94.993" height="0.788" transform="translate(283.007 157.467)" fill="#3f3d56"/><path d="M304.191,150.384l2.759,14.584,5.912,1.577L311.286,149.2Z" fill="#a0616a"/><path d="M337.3,150.384l2.759,14.584,5.912,1.577L344.4,149.2Z" fill="#a0616a"/><path d="M357.994,230.3s-6.307-.394-6.307,1.577-3.153,8.672-3.153,8.672-2.365,7.883,3.942,7.095,10.248-7.883,10.248-7.883l-1.577-7.489Z" transform="translate(-47.496 -68.091)" fill="#2f2e41"/><path d="M389.582,231.027s-4.207-2.7-3.906-.9.6,6.611,2.7,6.911,8.414,2.1,8.714,2.7,7.512,3,7.512-.9-4.507-6.911-4.507-6.911l-5.108-3.906s-3.305-.3-3.906,1.8S389.582,231.027,389.582,231.027Z" transform="translate(-47.496 -68.091)" fill="#2f2e41"/><path d="M349.62,135.493s-6.7-9.854-9.066-6.7,5.912,9.066,5.912,9.066Z" transform="translate(-47.496 -68.091)" fill="#a0616a"/><path d="M351.985,144.953c-.394-.394-7.489-7.095-7.489-7.095l5.124-3.547,5.912,5.912Z" transform="translate(-47.496 -68.091)" fill="#575a89"/><path d="M352.971,114.405s-5.124.394-4.73,4.73,3.745,18.723,3.745,18.723l1.971,3.942S361.248,119.135,352.971,114.405Z" transform="translate(-47.496 -68.091)" fill="#575a89"/><path d="M353.365,100.609l1.419,4.73h17.777l.512-5.124,1.537,5.124H376.9l.512-5.124,1.537,5.124h2.4l-2.261-5.446a43.908,43.908,0,0,1-2.383-8.058,15.18,15.18,0,0,0-14.867-12.117h0q-.314,0-.625.013c-9.964.4-16.345,10.838-12.522,20.048l2.308,5.56h1.892Z" transform="translate(-47.496 -68.091)" fill="#2f2e41"/><path d="M353.168,141.8s-12.219,10.248-8.672,24.044S349.226,223,349.226,223l12.219-1.182V167.42l16.949,32.321L381.153,223l13.8-2.365-6.307-28.38-12.128-36.175-1.274-10.437Z" transform="translate(-47.496 -68.091)" fill="#2f2e41"/><circle cx="8.277" cy="8.277" r="8.277" transform="translate(305.869 16.358)" fill="#a0616a"/><path d="M356.715,98.442s3.547,13.007,1.577,14.584,13.8-5.124,13.8-5.124-6.7-7.489-5.912-10.642Z" transform="translate(-47.496 -68.091)" fill="#a0616a"/><path d="M371.3,105.142s-6.311,5.428-12.418,5.868c0,0-8.078,4.381-7.684,4.775s1.577,5.912,1.577,5.912,1.971,3.043,1.971,9.46c0,.788-2.759,11.825-2.759,11.825l23.255,3.153s6.307-20.5,6.7-27.591,2.759-14.584-.788-14.978S371.3,105.142,371.3,105.142Z" transform="translate(-47.496 -68.091)" fill="#575a89"/><path d="M380.365,105.142s2.759-2.365,4.336,3.153,7.883,22.861,6.307,26.409-11.036,19.314-11.036,19.314l-4.73-3.153,9.46-17.737-5.518-12.613Z" transform="translate(-47.496 -68.091)" fill="#575a89"/><path d="M377.212,150.471s-12.219,7.489-8.277,9.066,10.642-6.7,10.642-6.7Z" transform="translate(-47.496 -68.091)" fill="#a0616a"/><path d="M305.08,15.175v8.277h3.153l1.182-3.547.3,3.547h8.77l1.182-3.547.3,3.547h3.646V15.175Z" fill="#2f2e41"/><path d="M352.577,122.288s-.788,7.883.394,9.46S352.577,122.288,352.577,122.288Z" transform="translate(-47.496 -68.091)" opacity="0.2"/><rect width="167.124" height="0.788" transform="translate(69.766 191.759)" fill="#3f3d56"/><path d="M274.221,199.981l-48.49,48.49a39.529,39.529,0,0,1-55.9,0c-.654-.654-1.285-1.328-1.884-2.022a38.179,38.179,0,0,1-2.755-3.547,38.934,38.934,0,0,1-6.244-14.978q-.337-1.756-.508-3.547-.183-1.91-.185-3.855a39.713,39.713,0,0,1,1.466-10.729q.5-1.8,1.179-3.547a39.441,39.441,0,0,1,8.932-13.673l21.155-21.155a5.912,5.912,0,0,1,8.36,8.36l-21.155,21.155a27.934,27.934,0,0,0-4.166,5.313,27.507,27.507,0,0,0-3.946,14.276,28.4,28.4,0,0,0,.264,3.855,26.966,26.966,0,0,0,.733,3.547,27.7,27.7,0,0,0,46.294,12.187l12.187-12.187,21.679-21.679,14.623-14.623a27.75,27.75,0,0,0,3.1-35.482,5.914,5.914,0,1,1,9.7-6.768A39.6,39.6,0,0,1,274.221,199.981Z" transform="translate(-47.496 -68.091)" fill="#3f3d56"/><path d="M350.212,107.618q0,.438-.012.875a39.345,39.345,0,0,1-3.283,14.978,38.162,38.162,0,0,1-1.774,3.547,39.636,39.636,0,0,1-6.508,8.549l-21.155,21.155a5.912,5.912,0,1,1-8.36-8.36l21.155-21.155c.063-.063.126-.126.185-.189a27.541,27.541,0,0,0,7.911-18.526c.012-.292.016-.583.016-.875q0-1.348-.126-2.672a27.673,27.673,0,0,0-7.986-16.917c-.422-.422-.851-.828-1.3-1.214a27.705,27.705,0,0,0-36.586,0c-.445.386-.875.792-1.3,1.214l-48.49,48.49a27.739,27.739,0,0,0,0,39.18,5.912,5.912,0,1,1-8.36,8.36,39.572,39.572,0,0,1,0-55.9l48.49-48.49a39.569,39.569,0,0,1,61.572,7.146,37.946,37.946,0,0,1,1.959,3.547,39.193,39.193,0,0,1,3.855,14.584Q350.21,106.276,350.212,107.618Z" transform="translate(-47.496 -68.091)" fill="#3f3d56"/><path d="M96.891,275.682c-1.806,6.675-7.991,10.809-7.991,10.809s-3.257-6.688-1.452-13.363,7.99-10.809,7.99-10.809S98.7,269.007,96.891,275.682Z" transform="translate(-47.496 -68.091)" fill="#f9a826"/><path d="M80.464,275.682c1.806,6.675,7.991,10.809,7.991,10.809s3.257-6.688,1.452-13.363-7.99-10.809-7.99-10.809S78.658,269.007,80.464,275.682Z" transform="translate(-47.496 -68.091)" fill="#f9a826"/><path d="M83.117,274.247c4.955,4.823,5.56,12.238,5.56,12.238s-7.428-.406-12.383-5.229-5.56-12.238-5.56-12.238S78.162,269.424,83.117,274.247Z" transform="translate(-47.496 -68.091)" fill="#3f3d56"/><path d="M94.237,274.247c-4.955,4.823-5.56,12.238-5.56,12.238s7.428-.406,12.383-5.229,5.56-12.238,5.56-12.238S99.192,269.424,94.237,274.247Z" transform="translate(-47.496 -68.091)" fill="#3f3d56"/><path d="M316.708,106.916a7.975,7.975,0,0,1-.157,1.575,7.9,7.9,0,1,1,.157-1.575Z" transform="translate(-47.496 -68.091)" fill="#3f3d56"/><path d="M200.431,226.347a7.977,7.977,0,0,1-.157,1.575,7.9,7.9,0,1,1,.157-1.575Z" transform="translate(-47.496 -68.091)" fill="#3f3d56"/><rect width="91.051" height="0.788" transform="translate(0 217.774)" fill="#3f3d56"/><path d="M275.589,86.814h16.8c-.445.386-.875.792-1.3,1.214l-2.333,2.333h-16.72Z" transform="translate(-47.496 -68.091)" fill="#f9a826"/><path d="M346.266,90.361H332.36a27.663,27.663,0,0,0-2.085-2.333c-.422-.422-.851-.828-1.3-1.214h15.329a37.946,37.946,0,0,1,1.959,3.547Z" transform="translate(-47.496 -68.091)" fill="#f9a826"/><path d="M209.961,36.854h16.72L223.134,40.4h-16.72Z" fill="#f9a826"/><path d="M316.46,104.945a7.952,7.952,0,0,1,.091,3.547H301.1a7.952,7.952,0,0,1,.091-3.547Z" transform="translate(-47.496 -68.091)" fill="#f9a826"/><path d="M350.212,107.618q0,.438-.012.875H338.371c.012-.292.016-.583.016-.875q0-1.348-.126-2.672h11.86Q350.21,106.276,350.212,107.618Z" transform="translate(-47.496 -68.091)" fill="#f9a826"/><path d="M191.436,55.38h16.72l-3.547,3.547h-16.72Z" fill="#f9a826"/><path d="M346.917,123.471a38.152,38.152,0,0,1-1.774,3.547H330.46a27.368,27.368,0,0,0,2.952-3.547Z" transform="translate(-47.496 -68.091)" fill="#f9a826"/><path d="M174.026,206.245a27.5,27.5,0,0,0-1.8,3.547h-12.5q.5-1.8,1.179-3.547Z" transform="translate(-47.496 -68.091)" fill="#f9a826"/><path d="M220.462,138.153l-3.547,3.547h-16.72l3.547-3.547Z" fill="#f9a826"/><path d="M171.078,227.923H158.949q-.337-1.756-.508-3.547h11.9a26.97,26.97,0,0,0,.733,3.547Z" transform="translate(-47.496 -68.091)" fill="#f9a826"/><path d="M200.431,226.347a7.977,7.977,0,0,1-.157,1.575l-15.451,0a7.952,7.952,0,0,1,.091-3.547h15.27A7.941,7.941,0,0,1,200.431,226.347Z" transform="translate(-47.496 -68.091)" fill="#f9a826"/><path d="M202.331,156.285l-3.547,3.547h-16.72l3.547-3.547Z" fill="#f9a826"/><path d="M187.991,246.449H167.948a38.179,38.179,0,0,1-2.755-3.547h16.255a27.425,27.425,0,0,0,6.543,3.547Z" transform="translate(-47.496 -68.091)" fill="#f9a826"/><path d="M231.3,242.9l-3.547,3.547H207.573a27.424,27.424,0,0,0,6.543-3.547Z" transform="translate(-47.496 -68.091)" fill="#f9a826"/><path d="M171.891,134.994c-3.014-5.092-8.976-5.329-8.976-5.329s-5.81-.743-9.536,7.012c-3.474,7.228-8.268,14.207-.772,15.9l1.354-4.214.839,4.528a29.332,29.332,0,0,0,3.207.055c8.028-.259,15.673.076,15.427-2.8C173.107,146.31,174.791,139.893,171.891,134.994Z" transform="translate(-47.496 -68.091)" fill="#2f2e41"/><path d="M102.679,179.343l.394,10.248h7.095l-.394-11.036Z" fill="#fbbebe"/><path d="M169.489,174.909l-.717,2.385-9.294,30.875-1.025,3.4.788,36.263-9.854,1.182s-.288-3.808-.709-9.428c-.847-11.131-2.235-29.385-3.039-39.318-.3-3.674-.508-6.208-.587-6.831-.394-3.153,4.73-18.92,4.73-18.92l10.248-.788Z" transform="translate(-47.496 -68.091)" fill="#2f2e41"/><path d="M152.54,256.5s-2.759-3.153-3.153-.788-5.124,11.431-5.124,11.431-13.8,9.066-1.971,9.854c0,0,5.912-.788,7.883-3.942,0,0,3.153-1.971,3.942-1.971s5.518-1.577,4.73-3.942-.394-11.036-.394-11.036Z" transform="translate(-47.496 -68.091)" fill="#2f2e41"/><path d="M104.65,169.883l3.547,6.7,5.518-2.759-3.547-7.883Z" fill="#fbbebe"/><path d="M149.387,218.661a53.188,53.188,0,0,1-3.745-16.358c5.707-6.378,12.613-13.4,12.613-13.4l8.277-.394,2.562-.2c.6,5.991-4.47,13.709-9.618,19.858A110.05,110.05,0,0,1,149.387,218.661Z" transform="translate(-47.496 -68.091)" opacity="0.2"/><path d="M159.635,188.7s-25.226,22.073-21.679,31.139,13.4,20.1,13.4,20.1l7.613-4.544-7.219-16.741s3.026-2.684,6.71-6.66c5.995-6.471,13.73-16.366,13-23.69l-.394-13.4-6.7.788Z" transform="translate(-47.496 -68.091)" fill="#2f2e41"/><path d="M157.27,243.1s-2.759,0-2.365,2.365,1.182,6.307,1.182,6.307-3.153,18.526,4.336,14.19,5.518-15.766,5.518-15.766,2.759-7.095-.788-7.883-4.73-1.577-5.124-1.182S157.27,243.1,157.27,243.1Z" transform="translate(-47.496 -68.091)" fill="#2f2e41"/><circle cx="7.095" cy="7.095" r="7.095" transform="translate(108.197 64.248)" fill="#fbbebe"/><path d="M160.029,142.193s3.153,8.277,1.971,8.672a17.715,17.715,0,0,0-3.547,2.365l3.942,3.547,10.248-5.518s-4.73-6.307-4.336-9.066Z" transform="translate(-47.496 -68.091)" fill="#fbbebe"/><path d="M172.642,149.682s-8.248,4.066-11.219,1.442c0,0-4.942-.259-5.73,2.5s.788,5.124-1.182,5.912-3.35,2.956-2.168,6.5.985,4.139-.591,5.321-3.153,3.547-3.153,4.336-1.577.788-.788,1.577-.788,0,.788.788,5.912-6.307,9.066-2.759,13.007,9.46,13.8,5.912S174.613,169,174.613,169s8.277-15.372,5.912-16.949S172.642,149.682,172.642,149.682Z" transform="translate(-47.496 -68.091)" fill="#cfcce0"/><path d="M171.46,177.274s-4.336-.788-5.518,1.971-7.883,9.066-3.547,9.46,7.489-6.7,7.489-6.7l4.336-.788Z" transform="translate(-47.496 -68.091)" fill="#fbbebe"/><path d="M175.8,152.047l5.155.287s2.334,2.472,2.728,4.837,7.883,20.1,3.153,22.073-14.978,3.153-14.978,3.153l-1.182-5.518,6.7-2.365-4.73-9.854Z" transform="translate(-47.496 -68.091)" fill="#cfcce0"/><path d="M104.847,150.766l6.484,16.209-7.666-16.209,6.7-7.095Z" opacity="0.2"/><path d="M100.961,168.609l2.7,3.443h-1.971Z" opacity="0.2"/><circle cx="4.311" cy="4.311" r="4.311" transform="translate(111.838 57.288)" fill="#2f2e41"/><path d="M158.881,128.556a4.311,4.311,0,0,1,3.857-4.287,4.311,4.311,0,1,0,0,8.573,4.311,4.311,0,0,1-3.857-4.287Z" transform="translate(-47.496 -68.091)" fill="#2f2e41"/><path d="M123.062,66.412l-5.89-3.085-8.134,1.262-1.683,7.433,4.19-.161,1.17-2.731v2.686l1.933-.074,1.122-4.347.7,4.628,6.872-.14Z" fill="#2f2e41"/></g></g></svg>