<svg xmlns="http://www.w3.org/2000/svg" xmlns:xlink="http://www.w3.org/1999/xlink" width="385" height="298" viewBox="0 0 385 298"><defs><clipPath id="a"><rect width="385" height="298" transform="translate(13 13)" fill="#fff" stroke="#707070" stroke-width="1"/></clipPath></defs><g transform="translate(-13 -13)" clip-path="url(#a)"><g transform="translate(14 51.208)"><circle cx="13.2" cy="13.2" r="13.2" transform="translate(235.739 32.447)" fill="#f2f2f2"/><rect width="264.827" height="141.489" transform="matrix(0.853, 0.522, -0.522, 0.853, 73.841, 0)" fill="#f2f2f2"/><path d="M334.674,232.35c-2.062-4.744-5.239-8.91-11.591-12.416a40.484,40.484,0,0,0-10.478-4.125,25.665,25.665,0,0,0,6.724-4.538,23.252,23.252,0,0,0,6.435-9.611,31.809,31.809,0,0,0,1.444-11.633c-.454-6.93-1.815-13.654-5.445-18.48s-8.745-8.539-15.51-11.138c-5.2-1.98-10.519-3.218-18.769-3.671V130.379l-16.5,10.313v16.088h-13.2V139.866l-16.913-9.488v26.4H204.941l11.55,19.8c3.568,0,5.985.334,7.219.949A5.455,5.455,0,0,1,226.391,180c.536,1.031.784,3.465.784,7.219v71.446c0,3.713-.247,6.105-.784,7.178s-.825,2.021-2.1,2.6-1.32.536-4.868.536h-.041l-14.438,19.8h35.888v26.4h16.913v-26.4h13.2v26.4h16.5V288.616c10.725-.536,18.356-1.939,24.5-4.249,7.961-2.97,14.066-7.3,18.439-12.994s6.146-14.4,6.518-21.12C337.19,244.271,336.53,236.557,334.674,232.35Zm-76.932-53.3h0v-.549h11.534c6.489,0,28.112-2.162,28.471,15.5s-28.471,16.937-28.471,16.937H257.746V209.58h0Zm0,50.326h13.2c2.681,0,11.9.408,15.263.561a14.643,14.643,0,0,1,4.026.718c.474.161.924.342,1.411.545a20.516,20.516,0,0,1,5.688,2.879,11.884,11.884,0,0,1,2.941,2.764,15.767,15.767,0,0,1,.974,1.522,15.458,15.458,0,0,1,1.72,4.245,17.218,17.218,0,0,1,.606,4.422,14.424,14.424,0,0,1-2.058,8.126,19.318,19.318,0,0,1-8.9,7.343c-9.471,4.307-21.669,4-21.669,4h-13.2Z" transform="translate(-55.003 -55.856)" fill="#3f3d56"/><path d="M307.514,102.059a1.418,1.418,0,0,0-.65-.721,2.225,2.225,0,0,0-.587-.239,1.436,1.436,0,0,0,.377-.263,1.353,1.353,0,0,0,.361-.558,1.906,1.906,0,0,0,.081-.675,2.059,2.059,0,0,0-.305-1.073,1.911,1.911,0,0,0-.87-.646,3.169,3.169,0,0,0-1.052-.213v-1.53l-.925.6v.934h-.74v-.982l-.948-.551v1.532h-2.014l.647,1.149a1.01,1.01,0,0,1,.4.055.311.311,0,0,1,.15.144,1.19,1.19,0,0,1,.044.419v4.146a1.191,1.191,0,0,1-.044.417c-.03.062-.046.117-.118.151s-.074.031-.273.031h0l-.809,1.149h2.012v1.532h.948v-1.532h.74v1.532h.925v-1.542a4.385,4.385,0,0,0,1.374-.247,2.259,2.259,0,0,0,1.034-.754,2.393,2.393,0,0,0,.365-1.226,2.786,2.786,0,0,0-.125-1.039ZM303.2,98.966h0v-.032h.647c.364,0,1.576-.125,1.6.9s-1.6.983-1.6.983H303.2v-.079h0Zm0,2.921h.74c.15,0,.667.024.856.033a.8.8,0,0,1,.226.042c.027.009.052.02.079.032a1.136,1.136,0,0,1,.319.167.677.677,0,0,1,.165.16,1.076,1.076,0,0,1,.185.591.86.86,0,0,1-.115.472,1.093,1.093,0,0,1-.5.426,3.116,3.116,0,0,1-1.215.232h-.74Z" transform="translate(-55.003 -55.856)" fill="#f9a826" opacity="0.3"/><circle cx="4.838" cy="4.838" r="4.838" transform="translate(324.394 186.59)" fill="#ff6584"/><line y1="55.09" transform="translate(367.375 189.007)" fill="#3f3d56" stroke="#3f3d56" stroke-miterlimit="10" stroke-width="0.825"/><circle cx="7.79" cy="7.79" r="7.79" transform="translate(359.585 181.217)" fill="#3f3d56"/><path d="M407.035,275.708c-11.253,17.257-8.17,39.206-8.17,39.206s21.328-6.03,32.581-23.287,8.17-39.206,8.17-39.206S418.288,258.452,407.035,275.708Z" transform="translate(-55.003 -55.856)" fill="#3f3d56"/><path d="M398.806,314.713s-.274-.044-.778-.146c-.4-.082-.956-.2-1.632-.358-6.044-1.425-22.114-6.242-32.62-18.908-13.149-15.859-12.6-38.017-12.6-38.017s20.106,3.267,33.354,17.509q.861.918,1.676,1.9c11.441,13.8,12.508,32.366,12.593,36.956C398.815,314.34,398.806,314.713,398.806,314.713Z" transform="translate(-55.003 -55.856)" fill="#f9a826"/><path d="M390.7,275.708c11.253,17.257,8.17,39.206,8.17,39.206s-21.328-6.03-32.581-23.287-8.17-39.206-8.17-39.206S379.443,258.452,390.7,275.708Z" transform="translate(-55.003 -55.856)" fill="none" stroke="#3f3d56" stroke-miterlimit="10" stroke-width="0.825"/><path d="M398.8,313.653c-.3.358-.56.664-.775.915-.478.545-.749.831-.749.831s-.329-.414-.883-1.189c-3.04-4.237-12.817-19.3-12.062-36.708q.061-1.368.2-2.707.861.918,1.676,1.9C397.652,290.5,398.718,309.063,398.8,313.653Z" transform="translate(-55.003 -55.856)" opacity="0.1"/><path d="M415.487,278.76c-.889,20.583-16.168,36.639-16.168,36.639s-13.837-17.315-12.947-37.9,16.168-36.639,16.168-36.639S416.378,258.177,415.487,278.76Z" transform="translate(-55.003 -55.856)" fill="#f9a826"/><line y1="73.114" x2="3.359" transform="translate(344.316 185.846)" fill="none" stroke="#3f3d56" stroke-miterlimit="10" stroke-width="0.825"/><circle cx="17.626" cy="17.626" r="17.626" transform="translate(80.202 134.623)" fill="#f9a826"/><circle cx="17.626" cy="17.626" r="17.626" transform="translate(50.242 176.106)" fill="#f9a826"/><circle cx="17.626" cy="17.626" r="17.626" transform="translate(13.368 209.235)" fill="#f9a826"/><line y1="31.973" transform="translate(30.978 226.764)" fill="#3f3d56" stroke="#3f3d56" stroke-miterlimit="10" stroke-width="0.825"/><circle cx="4.521" cy="4.521" r="4.521" transform="translate(26.457 222.243)" fill="#3f3d56"/><path d="M85.981,302.326s-.646-13.892-13.887-12.278" transform="translate(-55.003 -55.856)" fill="#3f3d56"/><line y1="106.648" transform="translate(97.839 152.314)" fill="#3f3d56" stroke="#3f3d56" stroke-miterlimit="10" stroke-width="0.825"/><circle cx="4.521" cy="4.521" r="4.521" transform="translate(93.317 147.742)" fill="#3f3d56"/><circle cx="4.521" cy="4.521" r="4.521" transform="translate(79.43 224.902)" fill="#3f3d56"/><path d="M152.842,231.215s-.646-13.893-13.887-12.278" transform="translate(-55.003 -55.856)" fill="#3f3d56"/><path d="M152.842,270.6s-.646-13.892-13.887-12.278" transform="translate(-55.003 -55.856)" fill="#3f3d56"/><path d="M152.842,313.575s2.907-27-13.887-28.3" transform="translate(-55.003 -55.856)" fill="none" stroke="#3f3d56" stroke-miterlimit="10" stroke-width="0.825"/><circle cx="4.521" cy="4.521" r="4.521" transform="translate(107.207 224.902)" fill="#3f3d56"/><path d="M152.844,313.575s-2.907-27,13.887-28.3" transform="translate(-55.003 -55.856)" fill="none" stroke="#3f3d56" stroke-miterlimit="10" stroke-width="0.825"/><circle cx="4.521" cy="4.521" r="4.521" transform="translate(107.482 182.489)" fill="#3f3d56"/><path d="M153.119,269.721s-2.907-25.563,13.887-26.855" transform="translate(-55.003 -55.856)" fill="none" stroke="#3f3d56" stroke-miterlimit="10" stroke-width="0.825"/><line y1="65.099" transform="translate(67.884 193.713)" fill="#3f3d56" stroke="#3f3d56" stroke-miterlimit="10" stroke-width="0.825"/><circle cx="4.521" cy="4.521" r="4.521" transform="translate(63.362 189.191)" fill="#3f3d56"/><path d="M122.887,267.982S122.241,254.09,109,255.7" transform="translate(-55.003 -55.856)" fill="#3f3d56"/><path d="M122.887,313.424s2.907-26.715-13.887-28.007" transform="translate(-55.003 -55.856)" fill="none" stroke="#3f3d56" stroke-miterlimit="10" stroke-width="0.825"/><circle cx="4.521" cy="4.521" r="4.521" transform="translate(49.475 225.04)" fill="#3f3d56"/><circle cx="7.425" cy="7.425" r="7.425" transform="translate(308.752 145.061)" fill="#f2f2f2"/><path d="M292.611,262.5c-9.471,4.307-21.669,4-21.669,4h-13.2v-2.52a81.867,81.867,0,0,1,21.038-2.43A96.391,96.391,0,0,1,292.611,262.5Z" transform="translate(-55.003 -55.856)" opacity="0.1"/><path d="M308.48,269.805c0,4.558-13.3,8.25-29.7,8.25s-29.7-3.692-29.7-8.25c0-2.273,3.308-4.331,8.663-5.82v2.52h13.2s12.2.305,21.669-4C302.045,263.882,308.48,266.633,308.48,269.805Z" transform="translate(-55.003 -55.856)" opacity="0.1"/><rect width="12.637" height="12.66" transform="translate(214.933 162.58)" fill="#2f2e41"/><path d="M274.635,227.388s1.046,3.661-.784,3.923a7.146,7.146,0,0,0-3.138,1.307l3.4,4.445h6.276l3.922-3.922s-5.23-3.923-4.184-6.276S274.635,227.388,274.635,227.388Z" transform="translate(-55.003 -55.856)" fill="#ffb9b9"/><path d="M274.635,227.388s1.046,3.661-.784,3.923a7.146,7.146,0,0,0-3.138,1.307l3.4,4.445h6.276l3.922-3.922s-5.23-3.923-4.184-6.276S274.635,227.388,274.635,227.388Z" transform="translate(-55.003 -55.856)" opacity="0.1"/><path d="M221.2,217.034l6.015,2.092,4.184.262-.262-3.661-8.629-2.552Z" fill="#ffb9b9"/><path d="M283.918,272.105s0,3.661.523,3.661,7.583-.785,9.676,0,5.23-2.092,3.661-3.661-4.128-3.923-5.725-3.4-8.134,1.831-8.134,1.831Z" transform="translate(-55.003 -55.856)" fill="#2f2e41"/><path d="M264.7,268.706s-3.138,6.276-1.046,6.8a7.255,7.255,0,0,0,4.707-.523c.262-.262,3.922-1.308,4.445-.785s.523-2.092.523-2.092Z" transform="translate(-55.003 -55.856)" fill="#2f2e41"/><path d="M267.313,260.076s-4.968,6.8-1.307,8.63,21.181,1.83,22.489,0,1.83-7.583,0-8.107S267.313,260.076,267.313,260.076Z" transform="translate(-55.003 -55.856)" fill="#2f2e41"/><path d="M267.313,260.076s-4.968,6.8-1.307,8.63,21.181,1.83,22.489,0,1.83-7.583,0-8.107S267.313,260.076,267.313,260.076Z" transform="translate(-55.003 -55.856)" opacity="0.2"/><circle cx="6.014" cy="6.014" r="6.014" transform="translate(215.71 161.334)" fill="#ffb9b9"/><path d="M267.313,232.618l5.23-1.046s1.307,4.184,5.492,3.4,5.23-3.4,5.23-3.4,3.138,1.308,3.4,1.308,3.661,1.308,3.661,2.092-3.922,8.63-3.922,8.63l.523,14.121-19.351-.523,1.307-13.859Z" transform="translate(-55.003 -55.856)" fill="#f9a826"/><path d="M264.437,239.417s-1.569,13.859-.523,14.905,5.23,3.922,5.23,3.922v-3.138l-2.092-3.923,2.092-9.152Z" transform="translate(-55.003 -55.856)" fill="#ffb9b9"/><path d="M291.5,239.025s-.915,14.252-.915,14.775-2.354,2.353-3.138,2.353-1.308-1.307-1.308-1.307l1.831-2.092-1.308-10.721Z" transform="translate(-55.003 -55.856)" fill="#ffb9b9"/><path d="M289.018,259.03s11.768-6.537,12.029,0-6.014,9.153-6.014,9.153-16.213,4.862-16.867,3.085-1.961-4.654-.915-4.915,2.353-.784,2.876-.261,7.061-3.923,7.061-3.923Z" transform="translate(-55.003 -55.856)" fill="#2f2e41"/><path d="M294.509,258.245a14.875,14.875,0,0,0-3.138,1.831c-.784.784-4.184,2.092-4.184,2.092" transform="translate(-55.003 -55.856)" fill="none" stroke="#000" stroke-miterlimit="10" stroke-width="0.825" opacity="0.2"/><path d="M268.882,233.141l-1.569-.523s-5.753,6.014-3.922,7.583,2.876,2.092,3.4,2.615,3.138.785,3.138.785Z" transform="translate(-55.003 -55.856)" fill="#f9a826"/><path d="M287.972,234.449l2.353.523a38.385,38.385,0,0,0,2.353,4.445c.523.523-.784.261-1.569,1.308s-1.569,2.876-3.138,2.876-3.661-2.615-3.661-2.615Z" transform="translate(-55.003 -55.856)" fill="#f9a826"/><path d="M267.836,261.384s-9.937-7.061-13.337-1.831,14.644,12.29,17.259,13.336,4.968,2.092,4.968,2.092,2.354-5.753,2.354-6.8-1.831-1.046-2.354-1.046-2.876-.523-3.4-1.307S267.836,261.384,267.836,261.384Z" transform="translate(-55.003 -55.856)" fill="#2f2e41"/><path d="M262.345,259.553a15.134,15.134,0,0,0,4.968,2.615,4.86,4.86,0,0,1,3.138,1.83" transform="translate(-55.003 -55.856)" fill="none" stroke="#000" stroke-miterlimit="10" stroke-width="0.825" opacity="0.2"/><path d="M266.033,249.72l.209,11.072a1.386,1.386,0,0,0,1.4,1.36l20.6-.232a1.386,1.386,0,0,0,1.368-1.306l.625-10.84a1.386,1.386,0,0,0-1.384-1.466H267.418a1.386,1.386,0,0,0-1.386,1.412Z" transform="translate(-55.003 -55.856)" fill="#575a89"/><path d="M263.649,232.684a25.873,25.873,0,0,0,1.675-3.712,16.408,16.408,0,0,0,.212-4.863,15.268,15.268,0,0,1,.365-4.291,7.378,7.378,0,0,1,2.121-3.693c2.74-2.446,7.756-2.622,11.1-1.6,1.319.4,2.724,1.166,3.052,2.506.049.2.072.411.127.611.274,1,1.294,1.628,1.662,2.6.476,1.25-.258,2.61-.354,3.944a8.206,8.206,0,0,0,1.409,4.4,5.086,5.086,0,0,1,.871,2.606,3.292,3.292,0,0,1-.451,1.437,5.478,5.478,0,0,1-4.6,2.638,2.887,2.887,0,0,1-1.724-.407,2.674,2.674,0,0,1-.886-2.671,12.959,12.959,0,0,1,1.054-2.773c.119-.28.227-.565.326-.852a5.852,5.852,0,1,0-3.86.655,7.927,7.927,0,0,1-.384,4.408,16.641,16.641,0,0,1-1.851,3.227,4.455,4.455,0,0,1-1.179,1.32,4.185,4.185,0,0,1-1,.429,10.41,10.41,0,0,1-4.569.644,4.373,4.373,0,0,1-3.582-2.6A5.366,5.366,0,0,1,263.649,232.684Z" transform="translate(-55.003 -55.856)" fill="#2f2e41"/><ellipse cx="6.383" cy="3.617" rx="6.383" ry="3.617" transform="translate(215.05 160.354)" fill="#2f2e41"/><path d="M373.956,208.774a1.1,1.1,0,0,0-.5-.56,1.728,1.728,0,0,0-.456-.186,1.116,1.116,0,0,0,.293-.2,1.052,1.052,0,0,0,.28-.433,1.483,1.483,0,0,0,.063-.525,1.6,1.6,0,0,0-.237-.833,1.485,1.485,0,0,0-.676-.5,2.462,2.462,0,0,0-.818-.166v-1.189l-.719.465v.726h-.575V204.6l-.737-.428v1.191H368.3l.5.893a.784.784,0,0,1,.314.043.241.241,0,0,1,.117.112.924.924,0,0,1,.034.326v3.222a.926.926,0,0,1-.034.324c-.023.048-.036.091-.092.117s-.057.024-.212.024h0l-.629.893h1.563v1.191h.737v-1.191h.575v1.191h.719v-1.2a3.407,3.407,0,0,0,1.067-.192,1.755,1.755,0,0,0,.8-.586,1.86,1.86,0,0,0,.284-.952,2.165,2.165,0,0,0-.1-.807Zm-3.351-2.4h0v-.025h.5c.283,0,1.225-.1,1.24.7s-1.24.764-1.24.764h-.5v-.061h0Zm0,2.27h.575c.117,0,.519.018.665.025a.619.619,0,0,1,.175.032c.021.007.04.015.061.025a.882.882,0,0,1,.248.13.525.525,0,0,1,.128.125.8.8,0,0,1,.117.26.8.8,0,0,1,.026.2.668.668,0,0,1-.09.366.849.849,0,0,1-.388.331,2.421,2.421,0,0,1-.944.18H370.6Z" transform="translate(-55.003 -55.856)" fill="#f9a826" opacity="0.3"/><circle cx="7.425" cy="7.425" r="7.425" transform="translate(19.174 171.049)" fill="#f2f2f2"/><path d="M84.378,234.761a1.1,1.1,0,0,0-.5-.56,1.73,1.73,0,0,0-.456-.186,1.116,1.116,0,0,0,.293-.2,1.052,1.052,0,0,0,.28-.433,1.482,1.482,0,0,0,.063-.525,1.6,1.6,0,0,0-.237-.833,1.485,1.485,0,0,0-.676-.5,2.462,2.462,0,0,0-.818-.166v-1.189l-.719.465v.726h-.575v-.763l-.737-.428v1.191H78.726l.5.893a.784.784,0,0,1,.314.043.241.241,0,0,1,.117.112.924.924,0,0,1,.034.326v3.222a.926.926,0,0,1-.034.324c-.023.048-.036.091-.092.117s-.058.024-.212.024h0l-.629.893H80.29V238.5h.737v-1.191H81.6V238.5h.719v-1.2a3.405,3.405,0,0,0,1.067-.192,1.755,1.755,0,0,0,.8-.586,1.86,1.86,0,0,0,.284-.952A2.165,2.165,0,0,0,84.378,234.761Zm-3.351-2.4h0v-.025h.5c.283,0,1.225-.1,1.24.7s-1.24.764-1.24.764h-.5v-.061h0Zm0,2.27H81.6c.117,0,.519.018.665.025a.617.617,0,0,1,.175.032c.021.007.04.015.061.025a.881.881,0,0,1,.248.13.525.525,0,0,1,.128.125.836.836,0,0,1,.144.459.668.668,0,0,1-.09.367.849.849,0,0,1-.388.331,2.421,2.421,0,0,1-.944.18h-.575Z" transform="translate(-55.003 -55.856)" fill="#f9a826" opacity="0.3"/></g></g></svg>