<svg xmlns="http://www.w3.org/2000/svg" xmlns:xlink="http://www.w3.org/1999/xlink" width="395" height="337" viewBox="0 0 395 337"><defs><clipPath id="a"><rect width="395" height="337" transform="translate(17 22)" fill="#fff" stroke="#707070" stroke-width="1"/></clipPath><linearGradient id="b" x1="0.5" y1="1" x2="0.5" gradientUnits="objectBoundingBox"><stop offset="0" stop-color="gray" stop-opacity="0.251"/><stop offset="0.54" stop-color="gray" stop-opacity="0.122"/><stop offset="1" stop-color="gray" stop-opacity="0.102"/></linearGradient></defs><g transform="translate(-14 -35)"><g transform="translate(-3 13)" clip-path="url(#a)"><g transform="translate(17 32.809)"><rect width="395" height="2.887" transform="translate(0 252.495)" fill="#85848b"/><path d="M344.728,246.022c0,2.22-12.942,8.693-28.316,8.693s-27.352-6.473-27.352-8.693,12.461-1.505,27.849-1.505S344.728,243.8,344.728,246.022Z" transform="translate(-31.786 -44.495)" fill="#504f60"/><path d="M344.728,246.022c0,2.22-12.942,8.693-28.316,8.693s-27.352-6.473-27.352-8.693" transform="translate(-31.786 -44.495)" opacity="0.2"/><path d="M189.905,205.279a17.182,17.182,0,0,0,7.474-.252c.376-.117.79-.376.753-.753a.911.911,0,0,0-.169-.376,23.246,23.246,0,0,1-2.258-4.3.376.376,0,0,0-.139-.2.354.354,0,0,0-.241,0c-1.1.29-2.055,1-3.15,1.306a4.478,4.478,0,0,1-1.716.128c-.5-.056-1.174-.467-1.626-.414C189.089,202.065,189.714,203.6,189.905,205.279Z" transform="translate(-31.786 -44.495)" fill="#f9a826"/><path d="M237.095,201.113a13.059,13.059,0,0,0,4.32-4.057.7.7,0,0,0,.117-.35.723.723,0,0,0-.139-.339,13.985,13.985,0,0,0-3.511-3.79,10.24,10.24,0,0,0-1.957,1.806c-.414.437-1.558,1.129-1.569,1.8,0,.376.437.813.64,1.129.275.406.534.82.783,1.242A14.737,14.737,0,0,1,237.095,201.113Z" transform="translate(-31.786 -44.495)" fill="#f9a826"/><path d="M199.687,210.318a1.675,1.675,0,0,1-.3,1.091,1.479,1.479,0,0,1-.632.376c-3.489,1.249-7.527-.309-11.008.922-.715.252-1.392.617-2.111.858a11.486,11.486,0,0,1-2.634.467c-1.231.117-2.469.192-3.7.226a8.9,8.9,0,0,1-2.792-.245,3.353,3.353,0,0,1-2.141-1.7,1.63,1.63,0,0,1-.105-1.208,1.3,1.3,0,0,1,.23-.376,3.3,3.3,0,0,1,.82-.666l1.283-.828a8.616,8.616,0,0,1,1.946-1.031c.508-.166,1.046-.237,1.562-.376a10.6,10.6,0,0,0,4.46-3.331l1.746-1.863a1.757,1.757,0,0,1,.606-.485,1.679,1.679,0,0,1,.753-.072,10.063,10.063,0,0,1,4.761,1.6,6.168,6.168,0,0,0,1.174.692,4.192,4.192,0,0,0,3.282-.406c.448-.241.35-.376.538-.805s.647-.7,1.046-.312a1.107,1.107,0,0,1,.248.474,13.35,13.35,0,0,1,.233,3.88,1.709,1.709,0,0,0,.075.6,3.407,3.407,0,0,0,.342.557,1.267,1.267,0,0,1,.071.143,3.827,3.827,0,0,1,.252,1.818Z" transform="translate(-31.786 -44.495)" fill="#514e7f"/><path d="M199.687,210.318a1.675,1.675,0,0,1-.3,1.091,1.479,1.479,0,0,1-.632.376c-3.489,1.249-7.527-.309-11.008.922-.715.252-1.392.617-2.111.858a11.486,11.486,0,0,1-2.634.467c-1.231.117-2.469.192-3.7.226a8.9,8.9,0,0,1-2.792-.245,3.353,3.353,0,0,1-2.141-1.7,1.63,1.63,0,0,1-.105-1.208,1.3,1.3,0,0,1,.23-.376c.2.425.35.99.478,1.193A2.442,2.442,0,0,0,176.6,213.1a4.057,4.057,0,0,0,1.505-.192c3.161-.783,6.522-.794,9.559-1.98a22.106,22.106,0,0,1,3.131-1.2,24.617,24.617,0,0,1,3.387-.275c1.784-.143,3.511-.681,5.269-.963a3.827,3.827,0,0,1,.237,1.829Z" transform="translate(-31.786 -44.495)" fill="#464353"/><path d="M245.085,200.883a6.343,6.343,0,0,1-1.927,3.432,22.442,22.442,0,0,0-2.7,2.951c-.9,1.381-1.31,3.094-2.484,4.26a6.812,6.812,0,0,1-1.505,1.073,10.5,10.5,0,0,1-1.938.892,14.461,14.461,0,0,1-5.476.3,4.925,4.925,0,0,1-1.739-.335,5.238,5.238,0,0,1-.723-.444,3.451,3.451,0,0,1-1.129-1.129,1.129,1.129,0,0,1-.109-.82,1.927,1.927,0,0,1,.523-.8,12.421,12.421,0,0,1,1.325-1.193,7.929,7.929,0,0,0,1.724-1.505,4.862,4.862,0,0,0,.666-1.505,13.352,13.352,0,0,0,.485-2.879,9.125,9.125,0,0,1,.2-1.927c.279-.994,1.016-1.882.933-2.909a.726.726,0,0,1,.038-.44.613.613,0,0,1,.346-.215,6.135,6.135,0,0,1,1.8-.418,2.1,2.1,0,0,1,1.671.655c.256.309.425.753.8.873a1.272,1.272,0,0,0,.572.023,4.793,4.793,0,0,0,2.634-.809,3.285,3.285,0,0,0,1.091-2.4c0-.342-.154-.7.376-.753.4-.053.715.376.918.64a8.916,8.916,0,0,1,1.761,3.206.944.944,0,0,1,.335-.064,1.457,1.457,0,0,1,1.2.613,2.39,2.39,0,0,1,.327,1.626Z" transform="translate(-31.786 -44.495)" fill="#514e7f"/><path d="M245.085,200.883a6.343,6.343,0,0,1-1.927,3.432,22.442,22.442,0,0,0-2.7,2.951c-.9,1.381-1.31,3.094-2.484,4.26a6.812,6.812,0,0,1-1.505,1.073,10.5,10.5,0,0,1-1.938.892,14.461,14.461,0,0,1-5.476.3,4.925,4.925,0,0,1-1.739-.335,5.238,5.238,0,0,1-.723-.444,3.451,3.451,0,0,1-1.129-1.129,2.751,2.751,0,0,1,1.129-.271c.813.045,1.408.813,2.187,1.05,1.11.335,2.217-.448,3.342-.715.734-.173,1.505-.128,2.232-.376a5.517,5.517,0,0,0,1.652-1,8.411,8.411,0,0,0,1.765-1.7,10.932,10.932,0,0,0,1.035-2.066,29.542,29.542,0,0,1,2.092-4,2.83,2.83,0,0,1,.425-.557,5.927,5.927,0,0,1,.576-.418,4.374,4.374,0,0,0,1.328-2.424,4.242,4.242,0,0,1,.3-.809,1.456,1.456,0,0,1,1.2.613A2.39,2.39,0,0,1,245.085,200.883Z" transform="translate(-31.786 -44.495)" fill="#464353"/><path d="M166.17,83.548a7.982,7.982,0,0,1,2.258,2.634c.527,1.031,3.564,9.032,3.387,10.2.99-1,4.892-1.159,5.894-2.156.418-.418,2.672-2.5,3.011-2.988s2.853-1.505,3.127-2.017c1.027-1.84-7.286-8.814-6.221-10.632a.474.474,0,0,0,.087-.286.467.467,0,0,0-.139-.222,12.467,12.467,0,0,0-2.4-1.645,3.814,3.814,0,0,1-1.833-2.183,7.9,7.9,0,0,0-2.126,1.438q-2.288,1.961-4.5,4c-.576.534-1.69,1.246-1.957,2.01C164.438,82.517,165.62,83.1,166.17,83.548Z" transform="translate(-31.786 -44.495)" fill="#a1616a"/><path d="M179.628,80.586a24.493,24.493,0,0,0-3.56,2.913,7.086,7.086,0,0,0-2.258,3.628c-.105.561-.09,1.129-.177,1.7-.376,2.465-2.506,4.271-3.447,6.578a11.406,11.406,0,0,0-.6,2.2,26.022,26.022,0,0,0-.433,4.32c-.023,1.4,1.355,2.371,1.859,3.681a22.474,22.474,0,0,1,.9,4,47.4,47.4,0,0,0,2.258,7.414c1.855,5.126,7.869,19.295,9.725,24.425,5.687-1.426,20.823-4.7,25.858-7.711,1.678-1-11.648-12.3-9.853-13.074a.67.67,0,0,0,.5-.945c-1.8-7.85-7.41-14.3-9.958-21.944-.884-2.653-2.473-4.919-3.677-7.44-1.091-2.284-1.675-4.81-2.981-6.981a4.4,4.4,0,0,0-.952-1.185,5.616,5.616,0,0,0-1.05-.636C181.039,81.165,180.346,80.951,179.628,80.586Z" transform="translate(-31.786 -44.495)" fill="#514e7f"/><circle cx="8.9" cy="8.9" r="8.9" transform="translate(125.784 20.36)" fill="#a1616a"/><path d="M175.525,77.936a2.984,2.984,0,0,1,3.346-.482,1.617,1.617,0,0,1,.994,1.607l4.414.068a8.863,8.863,0,0,1,2.092.192,3.041,3.041,0,0,1,1.746,1.1c.053.072.113.158.2.169a.324.324,0,0,0,.2-.068,3.831,3.831,0,0,1,2.2-.376,11.873,11.873,0,0,1,6.462,2.838,2.089,2.089,0,0,1,.753.937c.154.5-.03,1.129.376,1.487,0,4.14,1.423,8.009,2.371,12.043a5.4,5.4,0,0,0,1.336,1.919,7.742,7.742,0,0,1,1.426,2.13c.805,2.092-.3,4.554.478,6.654a11.4,11.4,0,0,0,1.505,2.39,6.18,6.18,0,0,1,1.287,3.086c.034.5-.03,1.012,0,1.505a9.115,9.115,0,0,0,.376,2q.482,1.821,1.009,3.639c.572,1.957,1.317,4.068,3.071,5.111-4.234.719-8.7,1.423-12.732-.049a6.6,6.6,0,0,1-1.588-.794c-1.456-1.039-2.16-2.815-2.789-4.494a21.218,21.218,0,0,1-1.554-5.8,6.658,6.658,0,0,0-.267-1.882,5.358,5.358,0,0,0-2.5-2.356,12,12,0,0,1-3.011-2.341,4.678,4.678,0,0,1-1.219-3.515c.075-.621.32-1.219.342-1.844A1.445,1.445,0,0,0,185,101.3c-3.082-.933-4.554-4.584-5.239-7.73a24.817,24.817,0,0,1-.4-4.93l-.041-3.21a4.238,4.238,0,0,1-1.385-3.045,3.617,3.617,0,0,0-.019-1.009,2.781,2.781,0,0,0-.708-1.073A9.574,9.574,0,0,1,175.525,77.936Z" transform="translate(-31.786 -44.495)" fill="#464353"/><path d="M166.045,88.113a24.652,24.652,0,0,1-.1,2.988c-.087.376-.237.753-.346,1.1a6.473,6.473,0,0,0,.41,4.189,23.332,23.332,0,0,0,2.141,3.707,6.022,6.022,0,0,1,.685,1.283,6.643,6.643,0,0,1,.263,1.464,45.474,45.474,0,0,0,1.046,5.916c.421,1.686,5.209,16.1,6.323,17.436a1.419,1.419,0,0,0,.858.583,1.562,1.562,0,0,0,.73-.151l2.258-.866a1.475,1.475,0,0,0,.523-.286,1.347,1.347,0,0,0,.324-.888c.162-1.837-4.637-16.352-5.246-18.087-1.844-5.239-4.3-10.289-5.5-15.712-.335-1.505-.512-3.824-1.615-5.024-.455-.5-.3-.286-.847-.026a6.179,6.179,0,0,0-.8.418A2.612,2.612,0,0,0,166.045,88.113Z" transform="translate(-31.786 -44.495)" fill="#464353"/><path d="M209.479,120.726" transform="translate(-31.786 -44.495)" fill="#464353"/><path d="M172.9,98.052c.606,3.2,1.231,6.4,1.852,9.6l8.836-2.314a6.21,6.21,0,0,0-.753-2.634c-.805-2.021-.824-4.271-1.475-6.349-.493-1.581-1.351-3.033-1.814-4.625-.267-.926-.4-1.882-.666-2.819a20.473,20.473,0,0,0-1.039-2.691,16.845,16.845,0,0,0-1.927-3.571,5.619,5.619,0,0,0-2.977,1.931,4.17,4.17,0,0,0-.549,1.882c-.154,1.983.565,3.978.327,5.95a17.5,17.5,0,0,0,.184,5.641Z" transform="translate(-31.786 -44.495)" fill="#f9a826"/><path d="M183.733,140.654c.5,1.882-.222,3.861-.809,5.724a44.364,44.364,0,0,0-1.8,8.618,7.458,7.458,0,0,1-.444,2.179c-.279.628-.753,1.159-1.076,1.758a8.827,8.827,0,0,0-.674,5.291c.128,1.185.32,2.367.557,3.534a8.939,8.939,0,0,1,.23,4.309c.7-.154,1.174.753,1.129,1.464a3.905,3.905,0,0,0,.068,2.119c.866.316.873,1.505.847,2.427a20.416,20.416,0,0,0,.6,4.742q1.964,9.446,4.17,18.84c3.18.986,6.895,2.013,9.928.647a1.991,1.991,0,0,0,1.257-1.264,2.206,2.206,0,0,0-.12-.971l-1.438-5.231a9.605,9.605,0,0,1-.516-3.869c.139-.967.561-2.01.087-2.864-.162-.294-.418-.523-.606-.8-.753-1.1-.358-2.578-.3-3.914a3.1,3.1,0,0,0-.06-.9,4.472,4.472,0,0,0-.429-.982,15.023,15.023,0,0,1-1.656-7.474,1.848,1.848,0,0,0-.132-.975,3.151,3.151,0,0,1-.245-.4,1.091,1.091,0,0,1,.079-.719,6.586,6.586,0,0,1-1.159-1.129,1.622,1.622,0,0,0,.278-2.537.847.847,0,0,0,.4-1.456c-.184-.128-.429-.184-.561-.376-.2-.278-.038-.666.128-.963l.877-1.584c.655-1.178.8-2.634,1.505-3.763a28.205,28.205,0,0,0,2.318-5.291l2.533-6.989,1.7,1.479a5.389,5.389,0,0,1,1.4,1.6,6.887,6.887,0,0,1,.455,1.912c.625,3.794,3.011,7.083,3.9,10.82a7.126,7.126,0,0,0,.805,2.416,5.266,5.266,0,0,1,.459.692,3.672,3.672,0,0,1,.192,1.148,5.355,5.355,0,0,0,2.258,3.839c.839.576,1.882.971,2.337,1.882a3.508,3.508,0,0,0,.376.8c.406.489,1.283.546,1.456,1.159.1.342-.083.753.109,1.054a1,1,0,0,0,.418.312l2.45,1.223c2.74,1.37,4.14,4.516,6.161,6.808a14.677,14.677,0,0,1,1.844,2.439c.873,1.562,1.276,3.523,2.751,4.516a4.162,4.162,0,0,1,1.069.794c.463.61.294,1.464.335,2.232s.628,1.682,1.359,1.449a5.355,5.355,0,0,0,0,2.841,14.3,14.3,0,0,0,8.678-3.515,3.424,3.424,0,0,0,1.411-2.371.85.85,0,0,0-.105-.47,1.344,1.344,0,0,0-.553-.418c-2.292-1.242-2.981-4.121-4.14-6.458a55.95,55.95,0,0,0-3.763-5.754c-2.725-4.121-4.584-9.107-8.7-11.828a5.923,5.923,0,0,1-2.416-2.119c-.252-.553-.282-1.185-.482-1.758a1.525,1.525,0,0,0-1.287-1.129,7.888,7.888,0,0,0,.294-2.732,3.451,3.451,0,0,0-.135-1.178,5.73,5.73,0,0,0-.606-1.167,11.192,11.192,0,0,1-1.551-6.021,9.873,9.873,0,0,0-.105-3.248c-.166-.523-.455-1-.655-1.505a9.408,9.408,0,0,1-.47-2.83l-.226-3.617a17.8,17.8,0,0,0-.467-3.575c-.753-2.807-1.505-14.568-4.083-15.893s-7.007,7.726-9.909,7.9a12.9,12.9,0,0,0-3.763.726,18.335,18.335,0,0,0-5.126,3.387l-5.337,4.482A19.663,19.663,0,0,1,183.733,140.654Z" transform="translate(-31.786 -44.495)" fill="#464353"/><path d="M158.12,63.873a6.709,6.709,0,0,1,5.178-2.525,12.061,12.061,0,0,1,5.724,1.438,7.071,7.071,0,0,0,1.671.685c.941.192,1.987-.064,2.838.376,1.129.6,1.347,2.123,1.249,3.387s-.335,2.668.339,3.763a8.7,8.7,0,0,1,.651.982,3.248,3.248,0,0,1-.053,2.092,13.561,13.561,0,0,1-1.08-1.381,1.272,1.272,0,0,0-1.558-.4c-.485.327-.478.922-.5,1.456s-.162,1.174-.666,1.347a1.08,1.08,0,0,1-1.129-.44c-.862-1.054-.516-2.736-1.37-3.8-.485-.6-1.295-.9-1.742-1.528-.354-.5-.444-1.129-.753-1.663s-1.027-.926-1.505-.557a2.036,2.036,0,0,0-.4.538,2.315,2.315,0,0,1-2.747.828,4.6,4.6,0,0,0-1.189-.516,1.471,1.471,0,0,0-1.359.753,2.939,2.939,0,0,0-.376,1.573,3.625,3.625,0,0,1-.294,2.156,2.231,2.231,0,0,1-.6.572,1.874,1.874,0,0,1-2.085.215,1.566,1.566,0,0,1-.467-1.46,11.8,11.8,0,0,1,.444-1.543c.331-1.167-.1-2.48.26-3.579A11.425,11.425,0,0,1,158.12,63.873Z" transform="translate(-31.786 -44.495)" fill="#464353"/><path d="M162.888,90.423a1.37,1.37,0,0,0,.083.817,1.3,1.3,0,0,0,.444.425,9.13,9.13,0,0,0,4.192,1.359,1.276,1.276,0,0,1,.58.151,1.019,1.019,0,0,1,.245,1.167,3.037,3.037,0,0,0-.267,1.242c.109.787,1.042,1.129,1.829,1.246a4.254,4.254,0,0,0,3.184-.621,4.919,4.919,0,0,0,1.313-1.968c2.16-4.964,2.917-10.451,5.1-15.4a3.267,3.267,0,0,0,.327-1.031,1.016,1.016,0,0,0-.406-.948c-.406-.252-1.039-.109-1.313-.5-.135-.2-.12-.47-.241-.681-.252-.448-.915-.376-1.366-.636-.354-.188-.6-.576-.994-.651a1.249,1.249,0,0,0-1.027.444,13.232,13.232,0,0,0-2.672,4.5,52.722,52.722,0,0,1-3.824,7.09,4.135,4.135,0,0,0-1.2-2.345c-.674-.135-1.535,1.046-1.9,1.487a9.469,9.469,0,0,0-2.092,4.862Z" transform="translate(-31.786 -44.495)" fill="#f9a826"/><path d="M176.56,75.389a1.8,1.8,0,0,0-1.4.7,3.982,3.982,0,0,0-.583,1.882,16.352,16.352,0,0,1-2.217,5.954" transform="translate(-31.786 -44.495)" opacity="0.1"/><path d="M178.48,76.89a2.149,2.149,0,0,0-1.825,1.1,6.152,6.152,0,0,0-.459,1.859,10.2,10.2,0,0,1-1.825,3.91" transform="translate(-31.786 -44.495)" opacity="0.1"/><path d="M267.921,150.465v-4.674a12.976,12.976,0,0,0-12.976-12.972H70.353a12.976,12.976,0,0,0-12.976,12.972v8.618Z" transform="translate(-31.786 -44.495)" fill="#33323d"/><path d="M121.7,127.339s-.527,32.689,5.269,43.445,8.28,57.546,8.28,57.546,60.757,6.285,103.095-7.527,132.427-19.461,132.427-19.461L355.593,99.019s-75-4.81-117.667,15.539S121.7,127.339,121.7,127.339Z" transform="translate(-31.786 -44.495)" fill="#8dd070"/><path d="M121.7,127.339s-.527,32.689,5.269,43.445,8.28,57.546,8.28,57.546,60.757,6.285,103.095-7.527,132.427-19.461,132.427-19.461L355.593,99.019s-75-4.81-117.667,15.539S121.7,127.339,121.7,127.339Z" transform="translate(-31.786 -44.495)" opacity="0.1"/><path d="M135.152,139.28s-1.9,26.972,2.868,35.591,4.99,47.092,4.99,47.092,54.679,2.537,93.573-10.7,120.629-21.828,120.629-21.828l-9.288-83.679s-67.628-.7-107.1,17.94S135.152,139.28,135.152,139.28Z" transform="translate(-31.786 -44.495)" fill="#8dd070"/><ellipse cx="14.196" cy="30.446" rx="14.196" ry="30.446" transform="matrix(0.992, -0.124, 0.124, 0.992, 186.824, 92.773)" opacity="0.1"/><path d="M314.474,49.173s-72.863,18.441-107.223,50.9S100.558,147.9,100.558,147.9s9.529,31.27,18.343,39.73,25.531,52.236,25.531,52.236,59.752-12.668,95.805-38.816,120.079-59.172,120.079-59.172Z" transform="translate(-31.786 -44.495)" opacity="0.2"/><path d="M99.463,143.22s9.525,31.274,18.332,39.734,25.531,52.232,25.531,52.232,59.759-12.664,95.816-38.812,120.075-59.161,120.075-59.161L313.375,44.495s-72.86,18.441-107.22,50.9S99.463,143.22,99.463,143.22Z" transform="translate(-31.786 -44.495)" fill="#8dd070"/><path d="M99.463,143.22s9.525,31.274,18.332,39.734,25.531,52.232,25.531,52.232,59.759-12.664,95.816-38.812,120.075-59.161,120.075-59.161L313.375,44.495s-72.86,18.441-107.22,50.9S99.463,143.22,99.463,143.22Z" transform="translate(-31.786 -44.495)" opacity="0.1"/><path d="M115.913,150.461s6.469,26.257,13.654,32.994,19.193,43.279,19.193,43.279,52.816-14.369,85.772-38.906,108.119-57.757,108.119-57.757L308.137,53.252s-64.576,20.085-96.426,49.937S115.913,150.461,115.913,150.461Z" transform="translate(-31.786 -44.495)" fill="#8dd070"/><ellipse cx="14.196" cy="30.446" rx="14.196" ry="30.446" transform="matrix(0.907, -0.422, 0.422, 0.907, 162.954, 78.44)" opacity="0.1"/><path d="M272.9,155.053V284.89a11.226,11.226,0,0,1-11.23,11.226H68.611A11.226,11.226,0,0,1,57.388,284.89V141.963c5.532,2.055,5.532,2.055,11.222,1.882H261.674A11.23,11.23,0,0,1,272.9,155.053Z" transform="translate(-31.786 -44.495)" opacity="0.1"/><path d="M272.9,156.7V286.542a11.23,11.23,0,0,1-11.23,11.226H68.611a11.226,11.226,0,0,1-11.222-11.226V143.612c5.532,2.051,5.532,2.051,11.222,1.882H261.674A11.23,11.23,0,0,1,272.9,156.7Z" transform="translate(-33.786 -45.495)" fill="#504f60"/><path d="M272.354,204.707v41.522H232.086a20.762,20.762,0,1,1,0-41.524Z" transform="translate(-31.786 -44.495)" opacity="0.1"/><path d="M272.9,203.6V245.13H232.635a20.762,20.762,0,1,1,0-41.524Z" transform="translate(-31.786 -44.495)" fill="#33323d"/><circle cx="8.095" cy="8.095" r="8.095" transform="translate(194.685 172.88)" opacity="0.1"/><circle cx="8.095" cy="8.095" r="8.095" transform="translate(195.234 171.781)" fill="#f9a826"/><path d="M342.8,203.243c.32,3.466-2.3,6.831-1.539,10.225.166.726.478,1.411.591,2.145.316,2.017-.884,3.925-2.032,5.611l-9.86,14.467a8.982,8.982,0,0,1-1.407,1.739c-1.882,1.678-4.712,1.505-7.188,2.006a12.284,12.284,0,0,0-4.817,2.13.309.309,0,0,0-.045.422,4.14,4.14,0,0,0,3.583,1.682c.26.342,0,.843-.376,1.088-.531.376-1.257.467-1.362,1.362a1.479,1.479,0,0,0,.181.9,2.8,2.8,0,0,0,1.724,1.2c3.413,1.042,7.1-.79,9.657-3.285s4.388-5.645,6.895-8.185c1.389-1.4,2.966-2.608,4.4-3.97a50.323,50.323,0,0,0,7.211-9.329,10.41,10.41,0,0,0,1.562-3.176c.271-1.155.143-2.322.448-3.44a12.67,12.67,0,0,1,2.363-3.865,12.787,12.787,0,0,0,2.687-8.321,7.977,7.977,0,0,0-4.87-6.906,4.328,4.328,0,0,0-2.728-.166,6.482,6.482,0,0,0-2.777,2.209l-1.882,2.164a5.073,5.073,0,0,0-1.091,1.656,1.735,1.735,0,0,0,.376,1.84" transform="translate(-31.786 -44.495)" fill="#fbbebe"/><path d="M342.8,203.243c.32,3.466-2.3,6.831-1.539,10.225.166.726.478,1.411.591,2.145.316,2.017-.884,3.925-2.032,5.611l-9.86,14.467a8.982,8.982,0,0,1-1.407,1.739c-1.882,1.678-4.712,1.505-7.188,2.006a12.284,12.284,0,0,0-4.817,2.13.309.309,0,0,0-.045.422,4.14,4.14,0,0,0,3.583,1.682c.26.342,0,.843-.376,1.088-.531.376-1.257.467-1.362,1.362a1.479,1.479,0,0,0,.181.9,2.8,2.8,0,0,0,1.724,1.2c3.413,1.042,7.1-.79,9.657-3.285s4.388-5.645,6.895-8.185c1.389-1.4,2.966-2.608,4.4-3.97a50.323,50.323,0,0,0,7.211-9.329,10.41,10.41,0,0,0,1.562-3.176c.271-1.155.143-2.322.448-3.44a12.67,12.67,0,0,1,2.363-3.865,12.787,12.787,0,0,0,2.687-8.321,7.977,7.977,0,0,0-4.87-6.906,4.328,4.328,0,0,0-2.728-.166,6.482,6.482,0,0,0-2.777,2.209l-1.882,2.164a5.073,5.073,0,0,0-1.091,1.656,1.735,1.735,0,0,0,.376,1.84" transform="translate(-31.786 -44.495)" opacity="0.05"/><path d="M350.264,292.473c-2.153,1.313-4.836,1.392-7.339,1.088-.4-.049-.881-.079-1.129.233-.376.452.068,1.129.527,1.479a10.857,10.857,0,0,0,5.039,2.074,33.18,33.18,0,0,0,4.93.327,83.35,83.35,0,0,0,13.477-.493,1.907,1.907,0,0,0,.753-.218,1.377,1.377,0,0,0,.557-.847,3.359,3.359,0,0,0-1.17-3.206,9.826,9.826,0,0,0-3.142-1.686l-3.914-1.524c-.918-.358-2.39-1.306-3.387-1.231C353.591,288.6,351.819,291.563,350.264,292.473Z" transform="translate(-31.786 -44.495)" fill="#3f3d56"/><path d="M350.264,292.473c-2.153,1.313-4.836,1.392-7.339,1.088-.4-.049-.881-.079-1.129.233-.376.452.068,1.129.527,1.479a10.857,10.857,0,0,0,5.039,2.074,33.18,33.18,0,0,0,4.93.327,83.35,83.35,0,0,0,13.477-.493,1.907,1.907,0,0,0,.753-.218,1.377,1.377,0,0,0,.557-.847,3.359,3.359,0,0,0-1.17-3.206,9.826,9.826,0,0,0-3.142-1.686l-3.914-1.524c-.918-.358-2.39-1.306-3.387-1.231C353.591,288.6,351.819,291.563,350.264,292.473Z" transform="translate(-31.786 -44.495)" opacity="0.05"/><path d="M353.008,240.516c-1.63,2.168-3.316,4.67-2.913,7.354a16.391,16.391,0,0,0,1.622,4.057,28.623,28.623,0,0,1,1.641,5.705c.61,2.838,1.223,5.683,1.6,8.566.425,3.255-1.573,12.675-1.758,15.953a3.372,3.372,0,0,1-.689,2.213c-.215.226-.5.406-.6.7a1.2,1.2,0,0,0,.132.828,9.107,9.107,0,0,0,4.892,4.493,38.694,38.694,0,0,0,9.435,2.48,1.881,1.881,0,0,0,.888-.117,1.727,1.727,0,0,0,.685-.787c1.637-3.131.064-14.263.087-17.8.023-2.947.719-5.875.591-8.818-.105-2.363-.753-4.674-.967-7.03-.376-3.861.331-7.741,1.042-11.557.542-2.928,1.088-5.856,1.784-8.746a16.793,16.793,0,0,1,1.882-5.077c.753-1.216,1.81-2.232,2.687-3.387a15.287,15.287,0,0,0,3.011-11.192c-.053-.376-5.645,1.419-6.138,1.633a19.122,19.122,0,0,0-5.472,3.519A45.982,45.982,0,0,0,363,227.773q-2.4,2.932-4.749,5.9Q355.575,237.076,353.008,240.516Z" transform="translate(-31.786 -44.495)" fill="#464353"/><path d="M353.008,240.384c-1.63,2.168-3.316,4.674-2.913,7.354a16.359,16.359,0,0,0,1.622,4.061,28.588,28.588,0,0,1,1.641,5.7c.61,2.841,1.223,5.687,1.6,8.566.425,3.259-1.573,12.675-1.758,15.953a3.382,3.382,0,0,1-.689,2.217c-.215.222-.5.4-.6.7a1.193,1.193,0,0,0,.132.828,9.218,9.218,0,0,0,4.892,4.516,36.355,36.355,0,0,0,9.435,1.765,1.881,1.881,0,0,0,.888-.117,1.7,1.7,0,0,0,.685-.783c1.637-3.131.064-13.548.087-17.086.023-2.951.719-5.875.591-8.821-.105-2.363-.753-4.674-.967-7.026-.376-3.865.331-7.745,1.042-11.561.542-2.924,1.088-5.852,1.784-8.746a16.793,16.793,0,0,1,1.882-5.077c.753-1.216,1.81-2.232,2.687-3.387a15.279,15.279,0,0,0,3.011-11.192c-.053-.376-5.645,1.419-6.138,1.633a19.212,19.212,0,0,0-5.472,3.523A45.438,45.438,0,0,0,363,227.66q-2.4,2.932-4.749,5.909Q355.575,236.941,353.008,240.384Z" transform="translate(-31.786 -44.495)" opacity="0.05"/><circle cx="9.134" cy="9.134" r="9.134" transform="translate(293.956 130.011)" fill="#fbbebe"/><path d="M343.1,183.255a11.828,11.828,0,0,0,7.583,5.291l-.689,2.5c-1.189,4.3-2.525,8.844-5.845,11.825a5.5,5.5,0,0,0-.926-4.275,16.115,16.115,0,0,0-3.1-3.24l-5.257-4.554a1.585,1.585,0,0,1-.376-.444,1.336,1.336,0,0,1,0-1c.67-2.085,2.582-3.387,4.14-4.795a14.339,14.339,0,0,0,2.081-2.424C341.763,180.644,342.414,182.149,343.1,183.255Z" transform="translate(-31.786 -44.495)" fill="#fbbebe"/><path d="M322.844,174.457l-.207-1.716c1.441.376,2.811-.851,3.733-2.119s1.776-2.762,3.18-3.293c1.7-.64,3.511.376,5.141,1.234a16.255,16.255,0,0,0,5.9,1.919,3.881,3.881,0,0,1,.975.158c1.061.376,1.566,1.709,1.72,2.917a11.406,11.406,0,0,0,.636,3.568c.376.817,1.076,1.423,1.505,2.228,1.129,2.16.038,5.114,1.216,7.233l-2.928-2.683c-.267-.245-.644-.5-.941-.294-.233.166-.252.523-.346.809a1.537,1.537,0,0,1-2.085.753,5.975,5.975,0,0,1-1.882-1.7,11.422,11.422,0,0,0-4.644-3.523,5.961,5.961,0,0,0-4.892.324c-1.366.771-2.367,2.57-4.042,2.634-2.3.087-3.252-4.189-4.313-5.878a2.07,2.07,0,0,0,.6-2.589C321.324,174.37,322.81,174.193,322.844,174.457Z" transform="translate(-31.786 -44.495)" fill="#464353"/><path d="M209.87,121.058a17.767,17.767,0,0,0-2.028,2.13,4.264,4.264,0,0,0-.933,2.736,1.4,1.4,0,0,0,.263.8.677.677,0,0,0,.753.23,1.012,1.012,0,0,0,.376-.331,18.166,18.166,0,0,1,1.264-1.37c.162-.162.376-.331.595-.271a.636.636,0,0,1,.256.169,1.731,1.731,0,0,1,.531.828,1.951,1.951,0,0,1-.583,1.6,4.107,4.107,0,0,0-.982,1.453.643.643,0,0,0,0,.467.7.7,0,0,0,.294.248,4.2,4.2,0,0,0,3.553.233c.753-.3,1.423-.828,2.2-1.1a5.082,5.082,0,0,0,.971-.376,2.017,2.017,0,0,0,.862-1.291,5.322,5.322,0,0,0,.056-1.584,18.219,18.219,0,0,0-1.295-5.957.753.753,0,0,0-.218-.316.7.7,0,0,0-.376-.1c-.963-.1-2.544-.595-3.474-.237a2.454,2.454,0,0,0-.82.73C210.958,119.944,209.87,120.805,209.87,121.058Z" transform="translate(-31.786 -44.495)" fill="#a1616a"/><path d="M209.565,120.207c0-.918-1.129-3.135.666-3.282,0-.982-1.389-1.592-1.129-2.634.083-.346.376-.628.41-.982.113-1-1.7-1.551-1.4-2.514.113-.376.512-.595.6-.967.2-.869-1.351-1.257-1.381-2.149,0-.3.169-.583.154-.884,0-.376-.327-.662-.508-.99-.47-.839-.241-2.138-1.1-2.57.568.049.753-.794.519-1.31s-.711-.963-.715-1.535a2.319,2.319,0,0,0,0-.625c-.158-.549-1.058-.595-1.208-1.129a4.809,4.809,0,0,1-.019-.617c-.06-.425-.5-.7-.907-.817a3.7,3.7,0,0,1-1.212-.433c-.263-.2-.568-.531-.851-.376-.105.064-.158.184-.237.275-.339.4-.986.222-1.411-.068a5.8,5.8,0,0,1-2.149-3.88c-.267-1.494-.26-3.037-.595-4.516a9.652,9.652,0,0,0-.406-1.355,7.127,7.127,0,0,1-.632-1.347c-.068-.866,1.724-.275,2.4-.188a10.71,10.71,0,0,1,1.953.376,20.884,20.884,0,0,1,2,.877c2.717,1.2,6,1.347,8.182,3.364a6.858,6.858,0,0,0,2.258,1.833,10.216,10.216,0,0,1,1.264.327c1.035.485,1.2,1.859,1.761,2.853a5.592,5.592,0,0,1,.463.828,3.19,3.19,0,0,1,.151,1.054l.079,2.608a96.175,96.175,0,0,1-.211,13.093,10.734,10.734,0,0,0,.049,4.287c.113.376.271.73.376,1.11a6.774,6.774,0,0,1,.143,1.355l.06,1.69a.527.527,0,0,1-.083.376.542.542,0,0,1-.455.109c-2.352-.211-4.731-1.535-6.951-.734" transform="translate(-31.786 -44.495)" fill="#464353"/><ellipse cx="27.834" cy="4.023" rx="27.834" ry="4.023" transform="translate(257.286 197.504)" fill="#504f60"/><path d="M340.852,246.217c-.489-2.1-.794-3.937-.794-3.937a8.112,8.112,0,0,0-.911-3.993v-.572h0V233.5a14.369,14.369,0,0,1,1.065-2.209c.753-1.325,0-6.18,0-6.18s-2.811-6.846-2.13-11.189-5.773-19.284-5.773-19.284a19.04,19.04,0,0,1,.606-4.268,3.257,3.257,0,0,0,.083-.9V189.4c-.1-2.864-2.363-8.231-2.363-8.231l.3-10.229a30.073,30.073,0,0,0-.911-14.132c-.824-2.826-1.351-5.088-1.686-6.834-.038-.2-.075-.376-.105-.568,4.851-.753,8.558-1.355,8.558-1.355s-2.815-11.776-4.716-13.838-3.421-8.539-3.421-8.539-.99-8.313.61-10.745,1.825-6.624,1.825-6.624,3.647-2.634,4.106-3.827a19.528,19.528,0,0,0,1.216-5.224c0-1.4-.455-2.634-.3-3.387s-1.065-3.534-.455-4.859a3.564,3.564,0,0,0,.241-1.276.165.165,0,0,0,0-.038h0a17.88,17.88,0,0,0-.32-3.455,9.8,9.8,0,0,0-3.613-1.931L331.884,84l-.207-.828a4.018,4.018,0,0,0-.358-.211v-.3l-.034-1.2.572-2.687c1.129-4.674-5.114-5.37-5.114-5.37a3.293,3.293,0,0,0-1.769-1.551c-1.253-.44-.207,7.03.376,7.527a29.439,29.439,0,0,1,2.461,3.854h0l.105.188a2.635,2.635,0,0,0-.286.3l.237,1.622.038.248a6.732,6.732,0,0,0-1,1.7,3.662,3.662,0,0,1,.915,2.634,8.439,8.439,0,0,0,.376,3.237c-.068-.079-.869-.945-1.671-.734s-3.041.884-3.041.884-1.671.294-1.505.662-1.129,1.987-1.129,1.987L316.36,91.7c-.045-.128-.094-.256-.132-.376a10.358,10.358,0,0,1-.376-1.882,10.279,10.279,0,0,0,1.438-.455,3.1,3.1,0,0,0,1.242-.8,4.816,4.816,0,0,0,.726-1.938,28.5,28.5,0,0,1,1.667-3.718,12.088,12.088,0,0,0,.847-6.691,4.366,4.366,0,0,0-.689-1.957c-.734-1.009-2.066-1.419-3.033-2.224s-1.592-2.036-2.721-2.634a5.4,5.4,0,0,0-3.41-.294,18.376,18.376,0,0,0-6.371,2.318,3.316,3.316,0,0,1-2.13.7,2.781,2.781,0,0,1-1.535-1.129.074.074,0,0,0-.03-.12,7.938,7.938,0,0,0-.7,3.364,4.143,4.143,0,0,0,.023.538v.342h0a.857.857,0,0,1-.034.237,1.712,1.712,0,0,1-.421.606,4.063,4.063,0,0,0-.376.5.621.621,0,0,1,.06-.184,2.676,2.676,0,0,0-.467,1.419,1.449,1.449,0,0,0,.339,1.016,4.892,4.892,0,0,0,.734.587,8.566,8.566,0,0,0-.135,1.505,8.7,8.7,0,0,0,4.238,7.418c.053.124.1.252.151.376a10.715,10.715,0,0,1,.817,4.892,2.3,2.3,0,0,1-.053.354c-.019.117-.113.124-.162.188h0s-7.425.075-9.171-1.505-4.411,3.865-4.411,3.865-2.661.516-3.2,0-3.647-.072-3.647-.072a6.71,6.71,0,0,0-4.64-1.694,13.62,13.62,0,0,0-3.387-1.882h0l-.083-.03h0a3.794,3.794,0,0,0-1.675-.211,33.782,33.782,0,0,1-4.716-4.637c-1.065-1.626-6.134-7.628-6.157-7.655v-.29l-.056-.873a3.129,3.129,0,0,1-.455.038c-.026-.087-.064-.188-.1-.3a16.832,16.832,0,0,0-1.076-2.473s0-1.1.32-1.381-.132-4.324-.132-4.324-3.289-7.689-6.236-1.949c0,0-5.57,3.714-.9,8.042,0,0,1.882.9,2.13,1.618.173.463.805,1.761,1.231,2.634l.192.376-.053.045.068.723.03.278c-.881.5-1.479,1-1.332,1.37a8.23,8.23,0,0,1,.531,1.987s6.466,8.1,7.3,11.557c0,0,17.338,10.3,23.04,11.038l-1.009,5.137a41,41,0,0,0-.226,4.2c.075,1.1-.685,6.108-.685,6.108s-.99,7.361-1.825,8.392-.685,5.446-.685,5.446a37.207,37.207,0,0,1-1.129,6.255,15.98,15.98,0,0,0-.23,6.259s-2.887,6.624,4.031,2.134c0,0,3.387-.211,7.309-.346v.376c0,.5,0,1.05-.026,1.622-.053,3.794-.075,9.032.1,12.976.3,6.992,2.435,20.83,2.435,20.83V194.3a9.482,9.482,0,0,0-.2,1.987,12.931,12.931,0,0,0,1.882,6.959l.534,4.637a18.087,18.087,0,0,1,1.272,4.892,2.565,2.565,0,0,1-.053.44,2.963,2.963,0,0,0-.06.711c-.072,2.107,1.2,7.15,1.2,7.15s.075,5.077.835,5.374c.651.252-.869,2.924-1.321,3.692A1.049,1.049,0,0,1,301.4,230l-.094.151a3.6,3.6,0,0,0-.237,1.287,1.844,1.844,0,0,0,.843,1.784c1.445.884,2.22,1.618.994,1.912a12.776,12.776,0,0,0-1.34.282.581.581,0,0,0-.064-.169.805.805,0,0,0-.5.888,3.763,3.763,0,0,0,.448,1.709,18.641,18.641,0,0,0,2.059,3.763l.583-.064a2.847,2.847,0,0,1-.339.628,2.424,2.424,0,0,1-.858.753,2.657,2.657,0,0,1-1.042.358,2.935,2.935,0,0,0-2.153,1.046c-.753.982-1.234,2.318.263,3.492l5.438,1.882s9.356,1.216,8.859-.884-.8-3.937-.8-3.937a8.3,8.3,0,0,0-.753-3.722,4.842,4.842,0,0,0-.331-.549l.331-.034s.685-4.64,1.6-5.521c.211-.2.26-.376.211-.482.094-.252-.147-.4-.452-.485l-.068.184a4.438,4.438,0,0,0-.907-.1s-.3-2.427.685-3.312a.937.937,0,0,0,.192-.723,3.884,3.884,0,0,0-.105-.99.487.487,0,0,1-.034.06,35.653,35.653,0,0,0-2.183-5.709,6.98,6.98,0,0,1,.534-3.09c.61-.884-.079-12-.079-12s.23-5.37-.455-7.873.835-5.449.835-5.449v-.2l-.087-.847a.217.217,0,0,0,0,.053c-.154-1.423-.444-4-.659-5.19-.3-1.694.079-9.785.079-9.785l1.366-3.462,2.435,5.965,2.585,7.948a6.79,6.79,0,0,1,1.31,3.387v.248a4.342,4.342,0,0,0-.03.531,4.726,4.726,0,0,0,.787,2.834s.685,3.763,1.75,4.708a4.225,4.225,0,0,1,1.065,2.8s1.291,5.449,1.882,6.4c.512.805.538,3.011.534,3.7h0v.2s.181,1.949.173,3.583v.583a.163.163,0,0,0,0-.041,5.669,5.669,0,0,1-.158,1.325l-.023.075a.96.96,0,0,1,.026-.275,13.83,13.83,0,0,0-.376,3.387c-.034,1.957.263,4.275,1.449,5.645,2.055,2.356,3.346,2.062,3.346,2.062s-.986,2.943-2.205,3.534a.572.572,0,0,0-.128.083,1.272,1.272,0,0,0-.03-.173,1.434,1.434,0,0,0-.376,1.1,7.894,7.894,0,0,0,1.505,4.362,2.457,2.457,0,0,0,1.027.6,1.634,1.634,0,0,1-.192.117,4.093,4.093,0,0,1-.418.2,2.194,2.194,0,0,1-.621.162,2.9,2.9,0,0,0-2.153,1.046c-.753.978-1.234,2.314.263,3.489l5.438,1.882S341.341,248.314,340.852,246.217Z" transform="translate(-31.786 -44.495)" fill="url(#b)"/><path d="M305.134,249.695l-5.269-1.882c-1.453-1.174-.99-2.51-.256-3.492a2.815,2.815,0,0,1,2.085-1.046,2.5,2.5,0,0,0,1-.358,2.408,2.408,0,0,0,.836-.753,3.888,3.888,0,0,0,.6-2.036s5.781-1.694,7.361,0a4.28,4.28,0,0,1,.7,1.027,8.6,8.6,0,0,1,.753,3.722s.294,1.837.771,3.937S305.134,249.695,305.134,249.695Z" transform="translate(-31.786 -44.495)" fill="#2d293d"/><path d="M330.89,247.1l-5.269-1.882c-1.453-1.174-.99-2.51-.256-3.489a2.781,2.781,0,0,1,2.081-1.046,1.952,1.952,0,0,0,.6-.162,4,4,0,0,0,.406-.2,3.332,3.332,0,0,0,1.434-2.8s5.777-1.694,7.361,0a4.168,4.168,0,0,1,.553.753,8.362,8.362,0,0,1,.881,4s.294,1.84.753,3.937S330.89,247.1,330.89,247.1Z" transform="translate(-31.786 -44.495)" fill="#2d293d"/><path d="M311.5,240.124a4.28,4.28,0,0,1,.7,1.027h0l-8.656,1a3.887,3.887,0,0,0,.6-2.036S309.917,238.431,311.5,240.124Z" transform="translate(-31.786 -44.495)" opacity="0.1"/><path d="M337.811,238.284v1.622c-1.347,2.217-7.862,1.731-9.755.621a4,4,0,0,0,.406-.2,3.332,3.332,0,0,0,1.434-2.8s5.777-1.694,7.361,0a4.169,4.169,0,0,1,.553.753Z" transform="translate(-31.786 -44.495)" opacity="0.1"/><path d="M338.839,231.292a14.748,14.748,0,0,0-1.027,2.209v5.814c-1.475,2.427-9.126,1.618-10.161.294s-2.115-4.772-.952-5.37,2.134-3.534,2.134-3.534-1.253.294-3.24-2.062-1.4-7.58-1.027-8.829,0-5.446,0-5.446.075-2.947-.512-3.9-1.84-6.4-1.84-6.4a4.332,4.332,0,0,0-1.031-2.8c-1.031-.956-1.694-4.712-1.694-4.712a4.828,4.828,0,0,1-.734-3.165,6.429,6.429,0,0,0-1.253-3.827l-2.5-7.952-2.356-5.961-1.325,3.459s-.376,8.1-.072,9.785.753,6.183.753,6.183-1.471,2.943-.809,5.446.422,7.881.422,7.881.662,11.11.072,11.994a7.183,7.183,0,0,0-.516,3.094s3.011,6.473,2.062,7.357-.662,3.312-.662,3.312,2.059,0,1.178.884-1.547,5.521-1.547,5.521l-8.9,1.042a18.511,18.511,0,0,1-1.991-3.763c-1.178-2.736.218-2.427,1.4-2.725s.437-1.027-.963-1.912-.587-2.871-.587-2.871,2.134-3.605,1.4-3.9-.809-5.374-.809-5.374-1.471-6.021-1.1-7.655-1.178-5.517-1.178-5.517l-.516-4.637a12.758,12.758,0,0,1-1.618-8.761v-7.15s-2.062-13.834-2.356-20.827c-.188-4.478-.135-10.59-.075-14.4.038-2.138.075-3.556.075-3.556l31.793-3.312a26.565,26.565,0,0,0,.576,4.723c.327,1.746.835,4.008,1.633,6.834a31.054,31.054,0,0,1,.884,14.128l-.3,10.233s2.8,6.842,2.209,9.2a19.621,19.621,0,0,0-.595,4.275s6.255,14.941,5.592,19.284,2.059,11.189,2.059,11.189S339.576,229.967,338.839,231.292Z" transform="translate(-31.786 -44.495)" fill="#464353"/><path d="M320.661,192.95l9.68-1.291S324.858,197.255,320.661,192.95Z" transform="translate(-31.786 -44.495)" opacity="0.05"/><path d="M328.941,182.2s.331,3.425-1.765,4.712C327.176,186.914,330.928,186.326,328.941,182.2Z" transform="translate(-31.786 -44.495)" opacity="0.1"/><path d="M328.346,171.31s-8.091,6.661-11.034,6.108S328.346,171.31,328.346,171.31Z" transform="translate(-31.786 -44.495)" opacity="0.1"/><path d="M308.664,196.074s-6.146,1.4-6.33,3.865S308.664,196.074,308.664,196.074Z" transform="translate(-31.786 -44.495)" opacity="0.1"/><path d="M310.015,226.768s-8.682,1.618-6.217,2.721a42.148,42.148,0,0,0,6.514,1.987S313.116,231.623,310.015,226.768Z" transform="translate(-31.786 -44.495)" opacity="0.05"/><g opacity="0.05"><path d="M302.044,231.243a1.712,1.712,0,0,1-.794-1.257l-.09.154s-.809,1.987.591,2.868c.158.1.312.2.452.3.26-.049.538-.087.805-.154C304.193,232.861,303.444,232.127,302.044,231.243Z" transform="translate(-31.786 -44.495)"/><path d="M313.229,230.652c.241-.218.233-.783.087-1.505a4.231,4.231,0,0,0-.493,2.13A1.837,1.837,0,0,1,313.229,230.652Z" transform="translate(-31.786 -44.495)"/><path d="M311.893,194.038a10.038,10.038,0,0,0-.587,2.706,10.916,10.916,0,0,1,.674-1.859Z" transform="translate(-31.786 -44.495)"/><path d="M331.778,190.176a3.451,3.451,0,0,0,.079-.805c-.109.549-.184,1.058-.241,1.505C331.666,190.647,331.718,190.429,331.778,190.176Z" transform="translate(-31.786 -44.495)"/><path d="M311.686,220.2a4.716,4.716,0,0,0,.218-1.637,5.558,5.558,0,0,0-.425,2.066,1.977,1.977,0,0,1,.207-.429Z" transform="translate(-31.786 -44.495)"/><path d="M313.492,234.084a29.21,29.21,0,0,0-1.012,4.516l-8.9,1.027a18.511,18.511,0,0,1-1.991-3.763,6.818,6.818,0,0,1-.252-.647c-.534.245-.753.8-.045,2.412a18.811,18.811,0,0,0,1.995,3.763l8.9-1.031s.662-4.637,1.543-5.521C314.181,234.415,313.9,234.193,313.492,234.084Z" transform="translate(-31.786 -44.495)"/><path d="M301.75,220.867s.072,5.077.809,5.37h0c.376-.839.621-1.637.29-1.769-.753-.294-.809-5.374-.809-5.374s-1.471-6.021-1.1-7.655-1.178-5.517-1.178-5.517l-.516-4.637a12.758,12.758,0,0,1-1.618-8.761v-7.15s-2.062-13.834-2.356-20.827c-.188-4.478-.135-10.59-.075-14.4,0-.689.023-1.3.034-1.814l-.252.026s-.041,1.415-.075,3.556c-.06,3.812-.117,9.924.075,14.4.294,6.992,2.352,20.83,2.352,20.83v7.15a12.765,12.765,0,0,0,1.622,8.757l.512,4.637s1.547,3.9,1.178,5.521S301.75,220.867,301.75,220.867Z" transform="translate(-31.786 -44.495)"/><path d="M327.951,237.644a8.607,8.607,0,0,1-1.411-3.5c-.907.82.136,4,1.129,5.269,1.027,1.325,8.682,2.134,10.161-.3v-1.4C335.824,239.688,328.922,238.9,327.951,237.644Z" transform="translate(-31.786 -44.495)"/><path d="M339.136,229.327a14.872,14.872,0,0,0-1.031,2.209v1.042a15.442,15.442,0,0,1,.753-1.475,4.516,4.516,0,0,0,.324-1.825S339.147,229.312,339.136,229.327Z" transform="translate(-31.786 -44.495)"/><path d="M328.4,230.49a14.542,14.542,0,0,0,.726-1.75s-1.253.294-3.24-2.062c-1.445-1.712-1.528-4.949-1.321-7.064-.376,1.253-.96,6.477,1.027,8.833A5.242,5.242,0,0,0,328.4,230.49Z" transform="translate(-31.786 -44.495)"/><path d="M324.564,214.168a39.224,39.224,0,0,1,.147,4.362,5.956,5.956,0,0,1,.151-.681c.376-1.253,0-5.446,0-5.446s.075-2.947-.516-3.9-1.822-6.405-1.822-6.405a4.332,4.332,0,0,0-1.031-2.8c-1.031-.956-1.694-4.712-1.694-4.712a4.843,4.843,0,0,1-.753-3.165,6.408,6.408,0,0,0-1.249-3.827l-2.5-7.948-2.356-5.961-1.328,3.462s0,.437-.045,1.129l1.076-2.811,2.356,5.95,2.5,7.948a6.409,6.409,0,0,1,1.249,3.827,4.844,4.844,0,0,0,.753,3.165s.662,3.763,1.694,4.712a4.307,4.307,0,0,1,1.027,2.8s1.253,5.446,1.84,6.4S324.564,214.168,324.564,214.168Z" transform="translate(-31.786 -44.495)"/></g><path d="M330.744,78.761l-.553,2.687.034,1.2.023.881-3.071.316-.342-.636h0a28.516,28.516,0,0,0-2.382-3.854c-.568-.474-1.581-7.948-.376-7.5a3.21,3.21,0,0,1,1.709,1.547S331.831,74.086,330.744,78.761Z" transform="translate(-31.786 -44.495)" fill="#ffcdd3"/><path d="M330.247,83.525l-3.071.316-.342-.636h0a2.706,2.706,0,0,1,3.387-.557Z" transform="translate(-31.786 -44.495)" opacity="0.1"/><path d="M331.022,84.982l-4.049.937-.087-.6-.23-1.622a2.787,2.787,0,0,1,3.921-.534l.2.824Z" transform="translate(-31.786 -44.495)" fill="#f9a826"/><path d="M265.426,79.054,261.1,81.372l-.376-.813c-.41-.862-1.024-2.16-1.193-2.634-.256-.715-2.059-1.618-2.059-1.618-4.516-4.324.866-8.042.866-8.042,2.853-5.739,6.021,1.949,6.021,1.949s.444,4.053.132,4.324-.312,1.381-.312,1.381a16.986,16.986,0,0,1,1.042,2.473C265.354,78.8,265.426,79.054,265.426,79.054Z" transform="translate(-31.786 -44.495)" fill="#ffcdd3"/><path d="M265.426,79.054,261.1,81.372l-.376-.813c.61-.512,2.774-2.258,3.485-2.187a5.209,5.209,0,0,0,1.024.026C265.354,78.8,265.426,79.054,265.426,79.054Z" transform="translate(-31.786 -44.495)" opacity="0.1"/><path d="M265.866,80.36l-4.859,2.394-.1-1.042-.068-.723s2.815-2.412,3.647-2.318a4.422,4.422,0,0,0,1.268,0l.056.873Z" transform="translate(-31.786 -44.495)" fill="#f9a826"/><path d="M318.968,96.61s-21.18,2.39-17.221,1.1c2.755-.9,3.85-2.634,4.08-4.591a11.029,11.029,0,0,0-.787-4.892,21.331,21.331,0,0,0-1.882-3.827s16.183-8.9,12.95-.809a13.053,13.053,0,0,0-.918,3.835,10.834,10.834,0,0,0,.418,3.884,11.565,11.565,0,0,0,3.361,5.3Z" transform="translate(-31.786 -44.495)" fill="#ffcdd3"/><path d="M316.1,83.582a13.051,13.051,0,0,0-.918,3.835c-1.524,1.283-3.2,1.2-5.344,1.2-1.648,0-3.477.4-4.795-.4a21.33,21.33,0,0,0-1.882-3.827S319.337,75.486,316.1,83.582Z" transform="translate(-31.786 -44.495)" opacity="0.1"/><circle cx="8.757" cy="8.757" r="8.757" transform="translate(269.005 27.168)" fill="#ffcdd3"/><path d="M318.968,96.61s-21.18,2.39-17.221,1.1c2.755-.9,3.85-2.634,4.08-4.591a11.814,11.814,0,0,1,4.516-2.4,6.338,6.338,0,0,1,3.839-.064,5.457,5.457,0,0,1,1.4.647A11.565,11.565,0,0,0,318.968,96.61Z" transform="translate(-31.786 -44.495)" opacity="0.1"/><path d="M331.022,84.982l-4.049.937-.087-.6a3.583,3.583,0,0,1,3.9-1.332Z" transform="translate(-31.786 -44.495)" opacity="0.1"/><path d="M265.866,80.36l-4.859,2.394-.1-1.042A35.439,35.439,0,0,1,265.8,79.54Z" transform="translate(-31.786 -44.495)" opacity="0.1"/><path d="M327.345,149.979c-8.208,1.31-19.875,2.981-21.726,2.416-1.539-.467-6.447-.418-10.718-.271.038-2.138.075-3.556.075-3.556l31.793-3.312A26.568,26.568,0,0,0,327.345,149.979Z" transform="translate(-31.786 -44.495)" opacity="0.1"/><path d="M335.527,148.053s-27.01,4.637-29.908,3.763-17.782.072-17.782.072c-6.7,4.49-3.9-2.134-3.9-2.134a16.466,16.466,0,0,1,.222-6.255,38.21,38.21,0,0,0,1.11-6.262s-.147-4.418.662-5.449S287.7,123.4,287.7,123.4s.734-5.005.662-6.108.218-4.2.218-4.2l.96-5.152c-5.521-.734-22.3-11.038-22.3-11.038-.809-3.459-7.064-11.554-7.064-11.554a8.518,8.518,0,0,0-.516-1.987c-.44-1.178,6.183-3.534,6.183-3.534s4.93,6.021,5.961,7.655a32.821,32.821,0,0,0,4.561,4.637,3.549,3.549,0,0,1,1.618.211l.087.026h0a13.119,13.119,0,0,1,3.293,1.882,6.4,6.4,0,0,1,4.49,1.694s3.011-.444,3.534.072,3.09,0,3.09,0,2.574-5.446,4.268-3.865,8.878,1.505,8.878,1.505c.956-1.272,3.285-2.183,4.742-2.634a6.364,6.364,0,0,1,3.839-.064,4.869,4.869,0,0,1,1.505.753l4.369,4.268s1.249-1.622,1.1-1.987,1.471-.662,1.471-.662,2.134-.662,2.943-.884,1.551.655,1.618.734a8.8,8.8,0,0,1-.376-3.237,3.823,3.823,0,0,0-.884-2.634c2.574-6.33,8.389-1.031,8.389-1.031s.662,3.459.075,4.783.587,4.121.44,4.859.3,1.987.3,3.387a20.692,20.692,0,0,1-1.178,5.224c-.425,1.178-3.974,3.827-3.974,3.827s-.222,4.2-1.769,6.624-.576,10.729-.576,10.729,1.471,6.477,3.312,8.539S335.527,148.053,335.527,148.053Z" transform="translate(-31.786 -44.495)" fill="#3f3d56"/><path d="M296.154,99.625s-.809-2.427-1.547-2.634a17.024,17.024,0,0,1-2.134-.956l.474-.907s2.762.753,3.206,1.569S296.154,99.625,296.154,99.625Z" transform="translate(-31.786 -44.495)" opacity="0.1"/><path d="M281.36,94.255c-.147.753-6.7,1.4-6.7,1.4l3.312-3.319h0l.083.03h0a13.12,13.12,0,0,1,3.3,1.893Z" transform="translate(-31.786 -44.495)" opacity="0.1"/><circle cx="0.587" cy="0.587" r="0.587" transform="translate(230.035 39.072)" fill="#575988"/><circle cx="0.587" cy="0.587" r="0.587" transform="translate(230.787 40.25)" fill="#575988"/><circle cx="0.587" cy="0.587" r="0.587" transform="translate(231.525 41.337)" fill="#575988"/><circle cx="0.587" cy="0.587" r="0.587" transform="translate(232.296 42.511)" fill="#575988"/><circle cx="0.478" cy="0.478" r="0.478" transform="translate(301.78 42.557)" fill="#575988"/><circle cx="0.478" cy="0.478" r="0.478" transform="translate(301.856 43.644)" fill="#575988"/><circle cx="0.478" cy="0.478" r="0.478" transform="translate(301.92 44.728)" fill="#575988"/><path d="M296.18,119.571c-.072-.087,16.521,20.864,29.4,8.757C325.591,128.332,305.243,131.091,296.18,119.571Z" transform="translate(-31.786 -44.495)" opacity="0.1"/><path d="M286.659,130.462s9.928.271,10.967,3.127v2.973a1.9,1.9,0,0,1-1.848,0c-1-.542-7-3.59-9.119-2.123Z" transform="translate(-31.786 -44.495)" opacity="0.1"/><path d="M286.843,130.462s9.5.26,10.489,2.984v2.83a1.821,1.821,0,0,1-1.769,0c-.956-.512-6.7-3.421-8.72-2.021Z" transform="translate(-31.786 -44.495)" fill="#3f3d56"/><path d="M292.078,108.906a31.944,31.944,0,0,0,3.85,6.6,25.915,25.915,0,0,0,6.021,5.822S292.244,110.268,292.078,108.906Z" transform="translate(-31.786 -44.495)" opacity="0.1"/><path d="M288.83,97.371s1.656,7.15,5.924,9.578Z" transform="translate(-31.786 -44.495)" opacity="0.1"/><path d="M286.29,98.093c-.041-.132-1.471,5.645,5.5,8.855C291.792,106.949,288.83,105.944,286.29,98.093Z" transform="translate(-31.786 -44.495)" opacity="0.1"/><path d="M329.641,93.3a49.648,49.648,0,0,1,4.407,3.312S331.737,93.148,329.641,93.3Z" transform="translate(-31.786 -44.495)" opacity="0.1"/><path d="M307.181,88.357a1.381,1.381,0,0,0,1.505,1.366c2.668.166,5.449.282,7.9-.753a3.011,3.011,0,0,0,1.2-.8,4.951,4.951,0,0,0,.7-1.938,28.177,28.177,0,0,1,1.615-3.718,12.457,12.457,0,0,0,.869-6.68,4.516,4.516,0,0,0-.67-1.953c-.708-1.012-2-1.423-2.935-2.228s-1.539-2.036-2.634-2.634a5.058,5.058,0,0,0-3.3-.294,17.346,17.346,0,0,0-6.164,2.314,3.145,3.145,0,0,1-2.062.7,2.758,2.758,0,0,1-1.505-1.163,8.152,8.152,0,0,0-.628,3.82,1.641,1.641,0,0,1-.019.576,1.731,1.731,0,0,1-.41.606c-.659.753-1.069,1.976-.418,2.751.282.335.719.519.994.862.493.613.327,1.505.316,2.288a1.178,1.178,0,0,0,.2.775,1.129,1.129,0,0,0,1.08.26,2.939,2.939,0,0,1,1.152-.109,1.931,1.931,0,0,1,1,.753A14.145,14.145,0,0,1,307.181,88.357Z" transform="translate(-31.786 -44.495)" fill="#2d293d"/><g opacity="0.1"><path d="M318.106,87.507a3.011,3.011,0,0,1-1.2.8c-2.469,1.027-5.246.911-7.9.753a1.385,1.385,0,0,1-1.509-1.37,13.73,13.73,0,0,0-2.232-5.178,1.934,1.934,0,0,0-1-.771,3.086,3.086,0,0,0-1.152.109,1.129,1.129,0,0,1-1.08-.256,1.178,1.178,0,0,1-.2-.775c0-.79.177-1.675-.316-2.288-.275-.342-.711-.527-.994-.866a1.716,1.716,0,0,1-.169-1.754,2.006,2.006,0,0,0-.124,2.345c.282.335.719.519.994.862.493.617.327,1.505.316,2.288a1.171,1.171,0,0,0,.192.775,1.129,1.129,0,0,0,1.084.26,2.939,2.939,0,0,1,1.152-.109,1.931,1.931,0,0,1,1,.753,13.755,13.755,0,0,1,2.232,5.182,1.882,1.882,0,0,0,.651,1.193,1.825,1.825,0,0,0,.828.181c2.668.166,5.449.286,7.9-.753a2.981,2.981,0,0,0,1.2-.8,2.3,2.3,0,0,0,.376-.708A.186.186,0,0,1,318.106,87.507Z" transform="translate(-31.786 -44.495)"/><path d="M301.073,74.745a1.287,1.287,0,0,0,.267-.444,1.641,1.641,0,0,0,0-.576,8.163,8.163,0,0,1,.41-3.169L301.7,70.5a8.092,8.092,0,0,0-.629,3.816,2.717,2.717,0,0,1,0,.429Z" transform="translate(-31.786 -44.495)"/></g><path d="M305.619,93.664s10.94,1.453,11.922-.192" transform="translate(-31.786 -44.495)" opacity="0.1"/><path d="M326.886,89.136s6.082,0,7.418,2.288" transform="translate(-31.786 -44.495)" opacity="0.1"/><path d="M360.911,292.417a9.646,9.646,0,0,1-6.567,2.454c-.617,0-1.471.117-1.475.734a1.035,1.035,0,0,0,.181.5,6.04,6.04,0,0,0,3.387,2.661,11.971,11.971,0,0,0,4.1.26l4.008-.207c.753-.041,1.505-.079,2.258-.173s1.573-.248,2.36-.376A30.859,30.859,0,0,1,375,298a1.767,1.767,0,0,0,1.438-.376c.309-.376.151-1.1.034-1.66-.241-1.163,0-2.382-.222-3.549a6.232,6.232,0,0,0-4.091-4.358c-1.806-.685-5.005-1.471-6.714-.327C363.639,288.932,362.537,290.938,360.911,292.417Z" transform="translate(-31.786 -44.495)" fill="#3f3d56"/><path d="M364.893,223.825c.354,1.682,1.983,2.969,2.028,4.685.041,1.377-.941,2.533-1.648,3.711a24.757,24.757,0,0,0-1.682,3.809,58.175,58.175,0,0,1-4.938,9.823c-.941,1.505-1.995,3.112-1.78,4.862a7.285,7.285,0,0,0,.854,2.326l2.823,5.607a16.237,16.237,0,0,1,1.441,3.541c.245,1.065.267,2.168.41,3.252.444,3.44,2.059,6.9,1.1,10.236-.083.286-.376.632-.606.433a10.725,10.725,0,0,1,1.611,5.472,7.629,7.629,0,0,0,.026,3.078,3.369,3.369,0,0,1,.44,1.212,7.725,7.725,0,0,1-.162.832,1.834,1.834,0,0,0,1.408,1.709c.756.252,1.581.233,2.345.463,1.468.44,2.518,1.7,3.763,2.582a8.013,8.013,0,0,0,4.335,1.411,1.091,1.091,0,0,0,.64-.128,1.035,1.035,0,0,0,.354-.775,4.305,4.305,0,0,0-1.551-3.741,1.693,1.693,0,0,1-.576-.6,1.452,1.452,0,0,1-.053-.674,50.718,50.718,0,0,0-.166-9.258,14.06,14.06,0,0,1-.147-2.947,12.039,12.039,0,0,0,.237-2.45,13.013,13.013,0,0,0-.753-2.348,16.922,16.922,0,0,1-.376-4.369,38.323,38.323,0,0,0-1.238-7.527,5.692,5.692,0,0,0-1.17-2.717c-.587-.613-1.535-1.2-1.313-2.017a2.39,2.39,0,0,1,.538-.8,3.218,3.218,0,0,0,.67-2.454,1.1,1.1,0,0,0,1.268-.595,19.843,19.843,0,0,0,9.928-11.29,3.726,3.726,0,0,1,.444-1.009,4.544,4.544,0,0,1,1.818-1.178c2.055-1.035,3.474-2.973,4.776-4.87a8.607,8.607,0,0,0,2.1-6.078l.117-4.422a2.39,2.39,0,0,0-.083-.866,2.164,2.164,0,0,0-.478-.7,8.5,8.5,0,0,0-4.689-2.529c-1.2-.215-2.435-.173-3.654-.275-2.363-.2-4.7-.93-7.06-.753a11.3,11.3,0,0,0-8.773,6.138C366.857,222.794,366.21,223.8,364.893,223.825Z" transform="translate(-31.786 -44.495)" fill="#464353"/><path d="M344.269,195.073a4.942,4.942,0,0,1-.271,2.013,1.407,1.407,0,0,1-1.652.847c.192-.433-.316-.926-.79-.873a1.479,1.479,0,0,0-1.043.9,3.331,3.331,0,0,0-.3,2.044,8.29,8.29,0,0,1,.519,2.567c-.105.723-.636,1.441-.354,2.111a3.42,3.42,0,0,0,.681.817,2.3,2.3,0,0,1-.245,3.161l7.12.143a5.028,5.028,0,0,0,.884,3.462,21.828,21.828,0,0,0,16.273,10.624,1.415,1.415,0,0,0-.342,2.164,2.011,2.011,0,0,0,2.288.132,16.284,16.284,0,0,0,1.957-1.468,6.021,6.021,0,0,1,4.023-1.084c.892.087,1.758.376,2.653.422,2.634.139,4.892-1.758,7.429-2.533,1.848-.568,3.944-.568,5.495-1.724a2.19,2.19,0,0,0,1.024-2.119,3.541,3.541,0,0,0-.753-1.246,21.521,21.521,0,0,1-2.059-3.857,23.074,23.074,0,0,0-5.145-6.895,46.027,46.027,0,0,0-5.1-3.869,8.7,8.7,0,0,0-1.377-.832,15.44,15.44,0,0,1-1.882-.753,10.031,10.031,0,0,1-1.961-2.205c-1.411-1.648-3.579-2.4-5.318-3.7-1.167-.869-2.2-2.013-3.59-2.431-.677-.207-1.4-.222-2.074-.425-1.539-.467-2.661-1.833-4.17-2.386a16.734,16.734,0,0,0-3.763-.478,8.81,8.81,0,0,1-3.933-1.5,4.667,4.667,0,0,0-1.253-.73c-1.908-.58-2.062,2.973-2.258,4.2A40.552,40.552,0,0,0,344.269,195.073Z" transform="translate(-31.786 -44.495)" fill="#f9a826"/><path d="M346.128,206.988c.32,3.47-2.3,6.831-1.535,10.229.162.723.474,1.411.587,2.145.32,2.013-.884,3.921-2.032,5.607l-9.86,14.47a9.1,9.1,0,0,1-1.408,1.739c-1.882,1.675-4.712,1.505-7.188,2a12.42,12.42,0,0,0-4.817,2.13.312.312,0,0,0-.06.433,4.14,4.14,0,0,0,3.579,1.682c.26.339,0,.843-.358,1.088-.527.376-1.257.463-1.362,1.362a1.506,1.506,0,0,0,.181.9,2.811,2.811,0,0,0,1.724,1.2c3.413,1.046,7.1-.79,9.657-3.285s4.388-5.645,6.895-8.182c1.389-1.408,2.966-2.608,4.4-3.97a50.286,50.286,0,0,0,7.211-9.329,10.325,10.325,0,0,0,1.562-3.176c.267-1.155.143-2.326.448-3.444a12.653,12.653,0,0,1,2.363-3.861A12.769,12.769,0,0,0,358.8,208.4a7.979,7.979,0,0,0-4.87-6.906,4.377,4.377,0,0,0-2.728-.166,6.463,6.463,0,0,0-2.777,2.213l-1.882,2.16a5.039,5.039,0,0,0-1.058,1.66,1.735,1.735,0,0,0,.376,1.844" transform="translate(-31.786 -44.495)" fill="#fbbebe"/><path d="M351.126,192.754a5.393,5.393,0,0,0-3.635,1.129,5.175,5.175,0,0,0-.918,1.438,14.317,14.317,0,0,0-1.818,5.72,26.17,26.17,0,0,0,.659,4.78c.2,1.325-.312,2.676-.41,4.016a27.87,27.87,0,0,0,5.186-1.995,17.366,17.366,0,0,1,3.037-1.577c1.547-.516,4.14.376,5.611,1.091.079-1.031-.7-2.83-.613-3.865a4.318,4.318,0,0,1,.23-1.28,7.763,7.763,0,0,1,.779-1.238,5.066,5.066,0,0,0-.455-5.935,8.265,8.265,0,0,0-5.3-2.258,22.917,22.917,0,0,0-3.7-.128" transform="translate(-31.786 -44.495)" fill="#f9a826"/></g></g><g transform="translate(120 204)"><path d="M203.5,139.369l-.668,2.677c.757.189,3.09.958,3.468-.557C206.692,139.91,204.254,139.558,203.5,139.369Z" transform="translate(-182.798 -124.975)" fill="#f9a826"/><path d="M202.493,143.4l-.736,2.951c.909.226,3.712,1.126,4.126-.539C206.316,144.073,203.4,143.624,202.493,143.4Z" transform="translate(-183.344 -121.894)" fill="#f9a826"/><path d="M216.177,131.634a19.995,19.995,0,1,0,14.563,24.239,19.995,19.995,0,0,0-14.563-24.239Zm3.98,16.552a3.5,3.5,0,0,1-2.8,3.222c1.968,1.024,2.97,2.6,2.016,5.322-1.184,3.384-4,3.67-7.739,2.961l-.908,3.639-2.195-.547.9-3.591q-.877-.217-1.749-.453l-.9,3.607-2.192-.547.908-3.646c-.513-.131-1.033-.271-1.564-.4l-2.855-.713,1.089-2.511s1.617.43,1.6.4a.8.8,0,0,0,1.005-.522l1.435-5.753.231.058a1.858,1.858,0,0,0-.228-.073l1.023-4.107a1.168,1.168,0,0,0-1.022-1.276c.035-.023-1.594-.4-1.594-.4l.584-2.344,3.026.756,0,.011c.455.113.924.22,1.4.329l.9-3.6,2.193.547-.881,3.533c.589.134,1.181.27,1.758.413l.875-3.51,2.194.547-.9,3.605c2.77.954,4.8,2.384,4.4,5.046Z" transform="translate(-191.34 -131.035)" fill="#f9a826"/></g></g></svg>